<?xml version="1.0" standalone="no"?>
<!DOCTYPE svg PUBLIC "-//W3C//DTD SVG 1.1//EN" "http://www.w3.org/Graphics/SVG/1.1/DTD/svg11.dtd" >
<svg>
<metadata>
Created by FontForge 20090622 at Tue Mar 15 09:51:24 2016
 By deploy user
Copyright (c) 2016 Caveras / Cliff Modes
</metadata>
<defs>
<font id="Filgaia" horiz-adv-x="2978" >
  <font-face 
    font-family="Filgaia"
    font-weight="400"
    font-stretch="normal"
    units-per-em="4096"
    panose-1="0 0 4 0 0 0 0 0 0 0"
    ascent="3276"
    descent="-820"
    x-height="2606"
    cap-height="3351"
    bbox="0 -744 3351 4468"
    underline-thickness="204"
    underline-position="511"
    unicode-range="U+0020-U+FFFD"
  />
<missing-glyph 
d="M0 -744v4467h2978v-4467h-2978z" />
    <glyph glyph-name=".notdef" 
d="M0 -744v4467h2978v-4467h-2978z" />
    <glyph glyph-name="NULL" 
 />
    <glyph glyph-name="nonmarkingreturn" horiz-adv-x="1117" 
 />
    <glyph glyph-name="space" unicode=" " 
 />
    <glyph glyph-name="exclam" unicode="!" 
d="M1489 0v372h-372v372h744v-744h-372zM1117 1117v1861h372v373h372v-1862h-372v-372h-372z" />
    <glyph glyph-name="quotedbl" unicode="&#x22;" 
d="M744 2234v744h-372v373h745v-373h372v-372h-372v-372h-373zM1861 2234v744h-372v373h745v-373h372v-372h-372v-372h-373z" />
    <glyph glyph-name="numbersign" unicode="#" 
d="M1489 1489v745h-372v-745h372zM372 0v1117h-372v372h372v745h-372v372h372v372h372v373h373v-745h372v372h372v373h373v-745h372v-372h-372v-745h372v-372h-372v-745h-373v-372h-372v1117h-372v-745h-373v-372h-372z" />
    <glyph glyph-name="dollar" unicode="$" 
d="M1861 744v745h-372v-745h372zM372 0v372h-372v372h372v373h372v-745h373v1489h-745v373h-372v372h372v372h372v-744h373v744h-373v373h1490v-373h372v-372h-745v372h-372v-744h745v-373h372v-1117h-372v-372h-373v-372h-1489z" />
    <glyph glyph-name="percent" unicode="%" 
d="M1489 372v372h372v373h373v744h372v-1117h-372v-372h-745zM0 1489v1117h372v372h745v-372h-373v-372h-372v-745h-372zM0 0v372h372v372h372v373h-372v372h372v372h373v745h744v745h1117v-373h-372v-372h-372v-745h-373v-372h-372v-745h-372v-372h-373v-372h-744z" />
    <glyph glyph-name="ampersand" unicode="&#x26;" 
d="M372 0v372h-372v745h372v372h372v-745h373v-372h372v-372h-1117zM1489 2234v372h372v-372h-372zM2234 0v372h-745v745h-372v372h-373v372h-372v745h372v372h373v-744h372v-373h372v-372h373v372h372v-744h-372v-373h372v-744h-372zM1861 2606v372h-744v373h1117v-745
h-373z" />
    <glyph glyph-name="quotesingle" unicode="'" 
d="M1489 2234v744h-372v373h744v-373h373v-372h-373v-372h-372z" />
    <glyph glyph-name="parenleft" unicode="(" 
d="M1861 0v372h373v-372h-373zM1489 372v372h372v-372h-372zM1117 744v373h-373v1489h373v372h372v373h372v-373h373v-372h-373v-372h-372v-1490h-372z" />
    <glyph glyph-name="parenright" unicode=")" 
d="M744 0v372h-372v372h372v373h373v1117h-373v744h373v-372h372v-372h372v-1490h-372v-372h-372v-372h-373zM372 2978v373h372v-373h-372z" />
    <glyph glyph-name="asterisk" unicode="*" 
d="M0 744v1117h372v-372h372v-372h-372v-373h-372zM2234 1861v373h-373v372h373v372h372v-1117h-372zM744 372v745h373v372h-373v372h-372v373h-372v744h744v-744h373v1117h744v-745h-372v-372h372v-373h373v-372h372v-745h-745v745h-372v-1117h-745z" />
    <glyph glyph-name="plus" unicode="+" 
d="M1117 744v745h-1117v372h372v373h745v744h372v-744h1117v-373h-372v-372h-745v-745h-372z" />
    <glyph glyph-name="comma" unicode="," 
d="M1117 0v744h-373v373h745v-373h372v-372h-372v-372h-372z" />
    <glyph glyph-name="hyphen" unicode="-" 
d="M0 1489v372h372v373h1862v-373h-373v-372h-1861z" />
    <glyph glyph-name="period" unicode="." 
d="M1117 372v745h372v-373h372v-372h-744z" />
    <glyph glyph-name="slash" unicode="/" 
d="M0 -372v372h372v372h372v372h373v745h372v745h372v1117h1117v-373h-372v-372h-372v-745h-373v-744h-372v-745h-372v-744h-1117z" />
    <glyph glyph-name="zero" unicode="0" 
d="M744 0v372h-372v372h-372v1490h372v372h372v-1862h373v-372h744v-372h-1117zM1861 372v2234h-372v372h-745v373h1117v-373h373v-372h372v-1862h-372v-372h-373z" />
    <glyph glyph-name="one" unicode="1" 
d="M1117 0v3351h744v-2979h-372v-372h-372z" />
    <glyph glyph-name="two" unicode="2" 
d="M372 0v372h372v372h373v373h372v-373h1117v-372h-372v-372h-1862zM1489 1117v372h372v-372h-372zM372 2606v372h372v-372h-372zM1861 1489v1117h-372v372h-745v373h1490v-373h372v-1117h-372v-372h-373z" />
    <glyph glyph-name="three" unicode="3" 
d="M372 -372v372h1117v-372h-1117zM1489 0v372h372v-372h-372zM372 2606v372h372v-372h-372zM1861 372v1117h-744v372h372v373h372v372h-372v372h-745v373h1490v-373h372v-744h-372v-373h372v-1117h-372v-372h-373z" />
    <glyph glyph-name="four" unicode="4" 
d="M372 1861v373h372v-373h-372zM744 2234v372h373v-372h-373zM1489 -372v1116h-1117v373h-372v744h372v-372h1117v745h372v372h373v-1117h372v-372h-372v-1117h-373v-372h-372zM1117 2606v372h372v-372h-372zM1489 2978v373h372v-373h-372z" />
    <glyph glyph-name="five" unicode="5" 
d="M0 -372v372h1117v-372h-1117zM1117 0v372h372v-372h-372zM1489 372v745h-372v372h-373v372h-744v373h372v372h372v745h1862v-373h-372v-372h-1117v-372h372v-373h372v-372h373v-745h-373v-372h-372z" />
    <glyph glyph-name="six" unicode="6" 
d="M744 0v372h-372v372h-372v1117h372v745h372v-1489h373v-373h372v-372h372v-372h-1117zM1861 372v1489h-372v373h372v372h373v-372h372v-1490h-372v-372h-373zM744 2606v372h373v-372h-373zM1117 2978v373h372v-373h-372z" />
    <glyph glyph-name="seven" unicode="7" 
d="M744 0v744h373v1117h372v745h-1489v372h372v373h2234v-373h-372v-744h-373v-745h-372v-1117h-372v-372h-373z" />
    <glyph glyph-name="eight" unicode="8" 
d="M372 0v372h-372v745h372v372h372v-745h373v-372h744v-372h-1489zM1861 372v745h-372v372h-745v372h-372v373h-372v372h372v372h372v-744h745v-373h372v745h-372v372h-372v373h1117v-373h372v-744h-372v-745h372v-745h-372v-372h-373z" />
    <glyph glyph-name="nine" unicode="9" 
d="M0 -372v372h744v-372h-744zM372 1117v372h-372v1117h372v372h745v-372h-373v-745h373v-744h-745zM744 0v372h373v372h372v745h372v1117h-372v372h-372v373h744v-373h373v-372h372v-1117h-372v-745h-373v-372h-372v-372h-745z" />
    <glyph glyph-name="colon" unicode=":" 
d="M1117 744v745h372v-372h372v-373h-744zM1117 1861v745h372v-372h372v-373h-744z" />
    <glyph glyph-name="semicolon" unicode=";" 
d="M1117 0v744h-373v373h745v-373h372v-372h-372v-372h-372zM1117 1861v745h372v-372h372v-373h-744z" />
    <glyph glyph-name="less" unicode="&#x3c;" 
d="M1489 0v744h-372v373h-745v372h-372v372h744v373h373v-745h372v-372h372v-373h373v-372h372v-372h-1117zM1117 2234v372h372v-372h-372zM1489 2606v372h372v-372h-372zM1861 2978v373h373v-373h-373z" />
    <glyph glyph-name="equal" unicode="=" 
d="M0 744v373h372v372h1862v-372h-373v-373h-1861zM0 1861v373h372v372h1862v-372h-373v-373h-1861z" />
    <glyph glyph-name="greater" unicode="&#x3e;" 
d="M372 0v372h372v-372h-372zM744 372v372h373v-372h-373zM1117 744v373h372v-373h-372zM1489 1117v744h-372v373h-373v372h-372v372h-372v373h1117v-745h372v-372h745v-373h372v-372h-745v-372h-372z" />
    <glyph glyph-name="question" unicode="?" 
d="M744 0v744h373v-372h372v-372h-745zM744 1117v372h373v-372h-373zM0 2606v372h372v-372h-372zM1117 1489v372h372v745h-372v372h-745v373h1489v-373h373v-1117h-373v-372h-744z" />
    <glyph glyph-name="A" unicode="A" 
d="M0 0v744h372v745h372v-372h1117v372h-372v745h-372v-745h-373v1117h373v745h744v-1117h373v-1490h372v-744h-745v744h-1117v-372h-372v-372h-372z" />
    <glyph glyph-name="B" unicode="B" 
d="M372 0v2606h-372v372h372v373h1489v-373h373v-372h372v-745h-372v-372h372v-745h-372v-372h-373v1117h-372v372h372v745h-372v372h-372v-2606h744v-372h-1489z" />
    <glyph glyph-name="C" unicode="C" 
d="M744 0v372h-372v372h-372v1862h372v-1117h372v-372h373v-373h1117v-372h-373v-372h-1117zM372 2606v372h372v-372h-372zM1861 2234v372h-372v372h-745v373h1117v-373h745v-372h-372v-372h-373z" />
    <glyph glyph-name="D" unicode="D" 
d="M372 0v2606h-372v372h372v373h1489v-373h373v-372h372v-1862h-372v-372h-373v2234h-372v372h-372v-2606h744v-372h-1489z" />
    <glyph glyph-name="E" unicode="E" 
d="M744 0v372h-372v372h-372v1862h372v372h372v373h1490v-373h372v-372h-745v372h-744v-372h-373v-372h1490v-373h-1490v-744h373v-373h1117v-372h-373v-372h-1117z" />
    <glyph glyph-name="F" unicode="F" 
d="M372 0v1861h-372v373h372v744h-372v373h2606v-373h-1489v-744h1117v-373h-1117v-1489h-373v-372h-372z" />
    <glyph glyph-name="G" unicode="G" 
d="M2234 744v373h-373v372h-372v372h372v373h373v-373h372v-1117h-372zM744 0v372h-372v372h-372v1862h372v-1117h372v-372h373v-373h1117v-372h-373v-372h-1117zM372 2606v372h372v-372h-372zM1861 2606v372h-1117v373h1490v-373h372v-372h-745z" />
    <glyph glyph-name="H" unicode="H" 
d="M372 0v1861h-372v373h372v372h-372v372h372v373h745v-1117h744v372h-372v372h372v373h745v-2979h-372v-372h-373v1861h-744v-1489h-373v-372h-372z" />
    <glyph glyph-name="I" unicode="I" 
d="M744 0v372h373v2606h-373v373h1490v-373h-373v-2606h373v-372h-1490z" />
    <glyph glyph-name="J" unicode="J" 
d="M744 -372v372h373v2606h-373v372h373v373h744v-3351h-372v-372h-745z" />
    <glyph glyph-name="K" unicode="K" 
d="M1489 1861v373h372v-373h-372zM372 0v2606h-372v372h372v373h745v-1490h372v-372h372v-745h373v373h372v-745h-372v-372h-373v372h-372v372h-372v-372h-373v-372h-372zM1861 2234v744h-372v373h1117v-745h-372v-372h-373z" />
    <glyph glyph-name="L" unicode="L" 
d="M372 0v2606h-372v372h372v373h745v-2979h1117v-372h-1862z" />
    <glyph glyph-name="M" unicode="M" 
d="M0 0v744h372v1490h-372v744h372v373h372v-745h373v-745h372v373h372v372h373v745h372v-3351h-372v372h-373v1117h-372v-745h-372v745h-373v-1489h-744z" />
    <glyph glyph-name="N" unicode="N" 
d="M372 0v2606h-372v372h372v373h745v-745h372v-372h372v1117h745v-2979h-372v-372h-373v1489h-372v372h-372v-1489h-373v-372h-372z" />
    <glyph glyph-name="O" unicode="O" 
d="M744 0v372h-372v372h-372v1490h372v372h372v-1862h373v-372h744v-372h-1117zM1861 372v2234h-372v372h-745v373h1117v-373h373v-372h372v-1862h-372v-372h-373z" />
    <glyph glyph-name="P" unicode="P" 
d="M1489 1489v372h372v-372h-372zM372 0v2606h-372v372h372v373h1862v-373h372v-744h-372v-373h-373v1117h-744v-2606h-373v-372h-372z" />
    <glyph glyph-name="Q" unicode="Q" 
d="M744 0v372h-372v372h-372v1490h372v372h372v-1862h373v-372h372v-372h-745zM1861 0v372h-372v372h372v1862h-372v372h-745v373h1117v-373h373v-372h372v-1117h-372v-1117h372v-372h-745z" />
    <glyph glyph-name="R" unicode="R" 
d="M1861 0v744h-372v1117h372v-372h373v-745h372v-744h-745zM372 0v2606h-372v372h372v373h1862v-373h372v-744h-372v-373h-373v1117h-744v-2606h-373v-372h-372z" />
    <glyph glyph-name="S" unicode="S" 
d="M372 0v372h-372v372h372v373h372v-745h745v-372h-1117zM1489 372v372h372v745h-372v372h-1117v373h-372v372h372v372h372v-372h373v-372h1117v-373h372v-1117h-372v-372h-745zM1861 2606v372h-1117v373h1490v-373h372v-372h-745z" />
    <glyph glyph-name="T" unicode="T" 
d="M1117 0v2978h-745v373h2234v-373h-745v-2606h-372v-372h-372z" />
    <glyph glyph-name="U" unicode="U" 
d="M744 0v372h-372v1117h-372v1489h372v373h372v-2607h373v-372h372v372h372v2234h373v373h372v-1862h-372v-1117h-373v-372h-1117z" />
    <glyph glyph-name="V" unicode="V" 
d="M1117 0v744h-373v1117h-372v745h-372v372h372v373h372v-373h373v-1489h372v372h372v1490h745v-1117h-372v-745h-373v-1117h-372v-372h-372z" />
    <glyph glyph-name="W" unicode="W" 
d="M372 0v1861h-372v1117h372v373h372v-1862h373v1117h372v372h372v-1489h373v1862h372v-2607h-372v-372h-373v-372h-372v744h-372v-372h-373v-372h-372z" />
    <glyph glyph-name="X" unicode="X" 
d="M0 0v744h372v373h372v-745h-372v-372h-372zM1489 2234v372h372v-372h-372zM1861 0v372h-372v372h-372v373h-373v744h-372v373h-372v744h372v373h372v-745h373v-372h372v-745h372v-372h373v-373h372v-372h-372v-372h-373zM1861 2606v745h745v-373h-372v-372h-373z" />
    <glyph glyph-name="Y" unicode="Y" 
d="M1117 0v1861h-373v373h-372v372h-372v372h372v373h372v-373h373v-372h372v-372h372v372h373v-745h-373v-1489h-372v-372h-372zM2234 2606v745h372v-745h-372z" />
    <glyph glyph-name="Z" unicode="Z" 
d="M372 0v372h-372v745h372v372h372v-745h1862v-372h-372v-372h-1862zM744 1489v372h373v-372h-373zM1117 1861v373h372v-373h-372zM1489 2234v372h372v-372h-372zM1861 2606v372h-1489v373h2234v-373h-372v-372h-373z" />
    <glyph glyph-name="bracketleft" unicode="[" 
d="M1117 0v2606h372v372h372v-2606h745v-372h-1489zM1861 2978v373h745v-373h-745z" />
    <glyph glyph-name="backslash" unicode="\" 
d="M1861 -372v744h-372v745h-372v744h-373v745h-372v372h-372v373h1117v-1117h372v-745h372v-745h373v-372h372v-372h372v-372h-1117z" />
    <glyph glyph-name="bracketright" unicode="]" 
d="M0 0v372h744v-372h-744zM744 372v2606h-744v373h1489v-2607h-372v-372h-373z" />
    <glyph glyph-name="asciicircum" unicode="^" 
d="M372 2234v372h372v-372h-372zM744 2606v372h373v-372h-373zM1861 2234v372h-372v372h-372v373h744v-373h373v-372h372v-372h-745z" />
    <glyph glyph-name="underscore" unicode="_" 
d="M0 0v372h372v372h1862v-372h-373v-372h-1861z" />
    <glyph glyph-name="grave" unicode="`" 
d="M1117 2978v373h-373v372h745v-372h372v-373h-744z" />
    <glyph glyph-name="a" unicode="a" 
d="M372 0v372h-372v1117h372v-745h372v-372h745v-372h-1117zM1861 0v372h-372v1117h-1117v372h745v373h372v-373h372v-372h373v-745h372v-372h-372v-372h-373zM372 2234v372h745v-372h-745z" />
    <glyph glyph-name="b" unicode="b" 
d="M1861 372v1862h-372v372h745v-372h372v-1490h-372v-372h-373zM744 0v372h-372v2606h372v373h373v-2979h744v-372h-1117z" />
    <glyph glyph-name="c" unicode="c" 
d="M1117 0v372h-373v372h-372v1117h372v373h373v-1490h372v-372h745v-372h-1117zM1861 1861v373h-744v372h1117v-372h372v-373h-745z" />
    <glyph glyph-name="d" unicode="d" 
d="M372 0v372h-372v1117h372v372h372v-1117h373v-372h744v-372h-1489zM1861 372v1489h-372v373h-745v372h-372v372h372v373h373v-373h372v-372h372v-372h373v-373h372v-1117h-372v-372h-373z" />
    <glyph glyph-name="e" unicode="e" 
d="M1117 0v372h-373v372h-372v1117h372v373h373v-1490h372v-372h745v-372h-1117zM1489 1489v372h372v373h-744v372h1117v-372h372v-373h-372v-372h-745z" />
    <glyph glyph-name="f" unicode="f" 
d="M1117 0v2234h-373v372h373v372h372v373h1117v-373h-745v-372h373v-372h-373v-1862h-372v-372h-372z" />
    <glyph glyph-name="g" unicode="g" 
d="M372 -744v372h-372v372h744v-372h745v372h372v372h-744v372h-745v745h-372v372h372v373h372v-745h745v-745h745v-372h372v-372h-372v-372h-373v-372h-1489zM1489 1489v745h-745v372h1862v-372h-372v-373h-373v-372h-372z" />
    <glyph glyph-name="h" unicode="h" 
d="M1861 0v1861h-372v373h372v372h373v-372h372v-1862h-372v-372h-373zM372 0v2606h-372v372h372v373h745v-1490h372v-372h-372v-745h-373v-744h-372z" />
    <glyph glyph-name="i" unicode="i" 
d="M1117 0v1861h-373v373h373v372h744v-2234h-372v-372h-372zM1117 2978v373h744v-373h-744z" />
    <glyph glyph-name="j" unicode="j" 
d="M1117 -744v3350h744v-2978h-372v-372h-372zM1117 2978v373h744v-373h-744z" />
    <glyph glyph-name="k" unicode="k" 
d="M2234 0v372h-373v372h-372v1117h372v745h373v-372h372v-373h-372v-372h-373v-372h373v-373h372v-744h-372zM372 0v2606h-372v372h372v373h745v-2979h-373v-372h-372z" />
    <glyph glyph-name="l" unicode="l" 
d="M1117 0v2606h-373v372h373v373h744v-2979h-372v-372h-372z" />
    <glyph glyph-name="m" unicode="m" 
d="M0 0v2606h372v-372h372v-373h373v373h372v372h745v-372h372v-1862h-372v-372h-373v1489h-372v-1117h-372v-372h-373v1489h-372v-1489h-372z" />
    <glyph glyph-name="n" unicode="n" 
d="M372 0v1861h-372v373h372v372h372v-372h745v372h745v-372h372v-1862h-372v-372h-373v1861h-744v-372h-373v-1489h-372z" />
    <glyph glyph-name="o" unicode="o" 
d="M744 0v372h-372v372h-372v1117h372v373h372v-1490h373v-372h744v-372h-1117zM1861 372v1489h-372v373h-372v372h1117v-372h372v-1490h-372v-372h-373z" />
    <glyph glyph-name="p" unicode="p" 
d="M1489 0v372h372v-372h-372zM372 -744v2605h-372v373h372v372h745v-372h372v-373h-372v-2233h-373v-372h-372zM1861 372v1862h-372v372h745v-372h372v-1490h-372v-372h-373z" />
    <glyph glyph-name="q" unicode="q" 
d="M744 0v372h-372v372h-372v1117h372v373h372v-1490h745v-372h-372v-372h-373zM1861 -744v2978h-1117v372h1490v-372h372v-2606h-372v-372h-373z" />
    <glyph glyph-name="r" unicode="r" 
d="M372 0v1861h-372v373h372v372h745v-372h372v-373h-372v-1489h-373v-372h-372zM1861 1489v745h-372v372h745v-372h372v-373h-372v-372h-373z" />
    <glyph glyph-name="s" unicode="s" 
d="M744 0v372h-372v372h745v-372h744v-372h-1117zM1861 372v745h-372v372h-745v372h-372v373h372v372h1862v-372h-1117v-373h745v-372h372v-745h-372v-372h-373z" />
    <glyph glyph-name="t" unicode="t" 
d="M1117 0v2234h-373v372h373v745h744v-745h373v-372h-373v-1490h373v-372h-373v-372h-744z" />
    <glyph glyph-name="u" unicode="u" 
d="M744 0v372h-372v1489h-372v373h372v372h745v-1862h372v-372h-372v-372h-373zM1861 0v744h-372v745h372v1117h745v-2234h-372v-372h-373z" />
    <glyph glyph-name="v" unicode="v" 
d="M1117 0v372h-373v1117h-372v372h-372v373h372v372h372v-372h373v-745h372v-745h372v-372h-372v-372h-372zM1861 744v1117h-372v373h372v372h373v-372h372v-745h-372v-745h-373z" />
    <glyph glyph-name="w" unicode="w" 
d="M372 0v1489h-372v1117h372v-745h372v-372h373v1117h372v-1117h745v372h-373v373h373v372h372v-1862h-372v-372h-373v-372h-372v744h-372v-372h-373v-372h-372z" />
    <glyph glyph-name="x" unicode="x" 
d="M372 0v744h372v-372h373v-372h-745zM1861 0v372h-372v372h-745v1117h-744v373h372v372h372v-372h373v-373h744v-1117h373v-372h372v-372h-745zM1861 1861v373h-372v372h1117v-372h-372v-373h-373z" />
    <glyph glyph-name="y" unicode="y" 
d="M744 372v372h-372v1117h-372v373h372v372h372v-745h373v-1117h372v-372h-745zM1861 -744v1488h-372v373h372v372h373v1117h372v-2978h-372v-372h-373z" />
    <glyph glyph-name="z" unicode="z" 
d="M744 0v372h-372v745h372v372h373v372h372v373h-1117v372h2234v-372h-372v-373h-373v-372h-372v-745h-372v-372h1489v-372h-1862z" />
    <glyph glyph-name="braceleft" unicode="{" 
d="M1489 0v372h-372v1117h-373v372h373v1117h372v373h745v-373h-373v-1117h-372v-372h372v-1117h373v-372h-745z" />
    <glyph glyph-name="bar" unicode="|" 
d="M1117 -744v3350h-373v372h373v373h744v-3723h-372v-372h-372z" />
    <glyph glyph-name="braceright" unicode="}" 
d="M0 0v372h372v1117h372v372h-372v1117h-372v373h744v-373h373v-1117h372v-372h-372v-1117h-373v-372h-744z" />
    <glyph glyph-name="asciitilde" unicode="~" 
d="M372 1489v372h372v373h745v-373h-372v-372h-745zM1489 1489v372h372v373h745v-373h-372v-372h-745z" />
    <glyph glyph-name="uni007F" 
d="M0 -744v4467h2978v-4467h-2978z" />
    <glyph glyph-name="uni00A0" unicode="&#xa0;" 
 />
    <glyph glyph-name="exclamdown" unicode="&#xa1;" 
d="M1489 0v372h-372v1862h372v-373h372v-1861h-372zM1117 2606v372h372v373h372v-745h-744z" />
    <glyph glyph-name="cent" unicode="&#xa2;" 
d="M1489 744v1117h-372v-1117h372zM1489 -372v372h-372v372h-373v372h-372v1117h372v373h373v372h372v372h372v-372h373v-372h372v-373h-745v-1117h373v-372h372v-372h-745v-372h-372z" />
    <glyph glyph-name="yen" unicode="&#xa5;" 
d="M1117 0v1117h-745v372h745v372h-373v373h-372v372h-372v372h372v373h372v-373h373v-372h372v-372h372v372h373v-745h-373v-372h745v-372h-745v-745h-372v-372h-372zM2234 2606v745h372v-745h-372z" />
    <glyph glyph-name="brokenbar" unicode="&#xa6;" 
d="M1117 -744v1116h-373v372h373v373h744v-1489h-372v-372h-372zM1117 1489v1117h-373v372h373v373h744v-1490h-372v-372h-372z" />
    <glyph glyph-name="dieresis" unicode="&#xa8;" 
d="M744 2606v372h-372v373h745v-745h-373zM1861 2606v372h-372v373h745v-745h-373z" />
    <glyph glyph-name="guillemotleft" unicode="&#xab;" 
d="M1117 744v373h-745v372h-372v372h744v373h373v-745h372v-745h-372zM2606 744v373h-745v372h-372v372h745v373h372v-745h372v-745h-372zM1117 2234v372h372v-372h-372zM2606 2234v372h372v-372h-372z" />
    <glyph glyph-name="logicalnot" unicode="&#xac;" 
d="M1861 744v745h-1861v372h372v373h2234v-1117h-372v-373h-373z" />
    <glyph glyph-name="uni00AD" unicode="&#xad;" 
d="M0 1489v372h372v373h1862v-373h-373v-372h-1861z" />
    <glyph glyph-name="macron" unicode="&#xaf;" 
d="M372 2978v373h372v372h1490v-372h-373v-373h-1489z" />
    <glyph glyph-name="degree" unicode="&#xb0;" 
d="M372 1861v373h745v-373h-745zM0 2234v744h372v-744h-372zM1117 2234v744h372v-744h-372zM372 2978v373h745v-373h-745z" />
    <glyph glyph-name="plusminus" unicode="&#xb1;" 
d="M0 0v372h372v372h745v745h-1117v372h372v373h745v744h372v-744h1117v-373h-372v-372h-745v-745h1117v-372h-372v-372h-2234z" />
    <glyph glyph-name="twosuperior" unicode="&#xb2;" 
d="M372 1117v744h372v373h373v-745h1117v372h372v-744h-2234zM372 2978v745h372v-372h373v-373h-745zM1117 2234v372h372v372h372v745h-1117v373h1490v-373h372v-745h-372v-372h-373v-372h-744z" />
    <glyph glyph-name="threesuperior" unicode="&#xb3;" 
d="M372 1117v744h745v-372h-373v-372h-372zM744 744v373h745v372h372v1117h373v-372h372v-745h-372v-372h-373v-373h-1117zM1117 2606v372h372v373h372v-745h-744zM372 3351v745h2234v-373h-372v-372h-373v372h-1117v-372h-372z" />
    <glyph glyph-name="acute" unicode="&#xb4;" 
d="M1117 2978v373h372v372h745v-372h-373v-373h-744z" />
    <glyph glyph-name="mu" unicode="&#xb5;" 
d="M372 -744v2605h-372v373h372v372h745v-1862h372v-372h-372v-744h-373v-372h-372zM1861 0v744h-372v745h372v1117h745v-2234h-372v-372h-373z" />
    <glyph glyph-name="periodcentered" unicode="&#xb7;" 
d="M1489 1489v372h-372v373h744v-745h-372z" />
    <glyph glyph-name="cedilla" unicode="&#xb8;" 
d="M744 -744v372h373v372h744v-372h-372v-372h-745z" />
    <glyph glyph-name="onesuperior" unicode="&#xb9;" 
d="M744 1117v372h745v2234h-745v373h745v372h372v-2979h745v-372h-1862z" />
    <glyph glyph-name="guillemotright" unicode="&#xbb;" 
d="M0 744v373h372v-373h-372zM1489 744v373h372v-373h-372zM372 1117v744h-372v745h372v-372h745v-373h372v-372h-745v-372h-372zM1861 1117v744h-372v745h372v-372h745v-373h372v-372h-744v-372h-373z" />
    <glyph glyph-name="questiondown" unicode="&#xbf;" 
d="M1861 372v372h373v-372h-373zM372 0v372h-372v1117h372v372h745v-372h-373v-745h373v-372h744v-372h-1489zM1117 1861v373h372v-373h-372zM1117 2606v372h-373v373h745v-745h-372z" />
    <glyph glyph-name="Agrave" unicode="&#xc0;" 
d="M0 0v744h372v745h372v-372h1117v372h-372v745h-372v-745h-373v1117h373v745h744v-1117h373v-1490h372v-744h-745v744h-1117v-372h-372v-372h-372zM1117 3723v373h-373v372h745v-372h372v-373h-744z" />
    <glyph glyph-name="Aacute" unicode="&#xc1;" 
d="M0 0v744h372v745h372v-372h1117v372h-372v745h-372v-745h-373v1117h373v745h744v-1117h373v-1490h372v-744h-745v744h-1117v-372h-372v-372h-372zM1117 3723v373h372v372h745v-372h-373v-373h-744z" />
    <glyph glyph-name="Acircumflex" unicode="&#xc2;" 
d="M0 0v744h372v745h372v-372h1117v372h-372v745h-372v-745h-373v1117h373v745h744v-1117h373v-1490h372v-744h-745v744h-1117v-372h-372v-372h-372zM744 3723v373h373v-373h-373zM1489 3723v373h-372v372h744v-372h373v-373h-745z" />
    <glyph glyph-name="Atilde" unicode="&#xc3;" 
d="M0 0v744h372v745h372v-372h1117v372h-372v745h-372v-745h-373v1117h373v745h744v-1117h373v-1490h372v-744h-745v744h-1117v-372h-372v-372h-372zM372 3723v373h372v372h745v-372h-372v-373h-745zM1489 3723v373h372v372h745v-372h-372v-373h-745z" />
    <glyph glyph-name="Adieresis" unicode="&#xc4;" 
d="M0 0v744h372v745h372v-372h1117v372h-372v745h-372v-745h-373v1117h373v745h744v-1117h373v-1490h372v-744h-745v744h-1117v-372h-372v-372h-372zM744 3723v373h-372v372h745v-745h-373zM1861 3723v373h-372v372h745v-745h-373z" />
    <glyph glyph-name="Aring" unicode="&#xc5;" 
d="M0 0v744h372v745h372v-372h1117v372h-372v745h-372v-745h-373v1117h373v745h744v-1117h373v-1490h372v-744h-745v744h-1117v-372h-372v-372h-372zM1117 3723v745h744v-745h-744z" />
    <glyph glyph-name="AE" unicode="&#xc6;" 
d="M0 0v1489h372v-372h745v1117h-373v-745h-372v1117h372v745h373v-373h372v373h1117v-373h372v-372h-744v372h-373v-372h-372v-372h1117v-373h-1117v-744h372v-373h745v-372h-372v-372h-745v372h-372v372h-745v-744h-372z" />
    <glyph glyph-name="Ccedilla" unicode="&#xc7;" 
d="M744 -744v372h373v372h-373v372h-372v372h-372v1862h372v-1117h372v-372h373v-373h1117v-372h-373v-744h-372v-372h-745zM372 2606v372h372v-372h-372zM1861 2234v372h-372v372h-745v373h1117v-373h745v-372h-372v-372h-373z" />
    <glyph glyph-name="Egrave" unicode="&#xc8;" 
d="M744 0v372h-372v372h-372v1862h372v372h372v373h1490v-373h372v-372h-745v372h-744v-372h-373v-372h1490v-373h-1490v-744h373v-373h1117v-372h-373v-372h-1117zM1117 3723v373h-373v372h745v-372h372v-373h-744z" />
    <glyph glyph-name="Eacute" unicode="&#xc9;" 
d="M744 0v372h-372v372h-372v1862h372v372h372v373h1490v-373h372v-372h-745v372h-744v-372h-373v-372h1490v-373h-1490v-744h373v-373h1117v-372h-373v-372h-1117zM1117 3723v373h372v372h745v-372h-373v-373h-744z" />
    <glyph glyph-name="Ecircumflex" unicode="&#xca;" 
d="M744 0v372h-372v372h-372v1862h372v372h372v373h1490v-373h372v-372h-745v372h-744v-372h-373v-372h1490v-373h-1490v-744h373v-373h1117v-372h-373v-372h-1117zM744 3723v373h373v-373h-373zM1489 3723v373h-372v372h744v-372h373v-373h-745z" />
    <glyph glyph-name="Edieresis" unicode="&#xcb;" 
d="M744 0v372h-372v372h-372v1862h372v372h372v373h1490v-373h372v-372h-745v372h-744v-372h-373v-372h1490v-373h-1490v-744h373v-373h1117v-372h-373v-372h-1117zM744 3723v373h-372v372h745v-745h-373zM1861 3723v373h-372v372h745v-745h-373z" />
    <glyph glyph-name="Igrave" unicode="&#xcc;" 
d="M744 0v372h373v2606h-373v373h1490v-373h-373v-2606h373v-372h-1490zM1117 3723v373h-373v372h745v-372h372v-373h-744z" />
    <glyph glyph-name="Iacute" unicode="&#xcd;" 
d="M744 0v372h373v2606h-373v373h1490v-373h-373v-2606h373v-372h-1490zM1117 3723v373h372v372h745v-372h-373v-373h-744z" />
    <glyph glyph-name="Icircumflex" unicode="&#xce;" 
d="M744 0v372h373v2606h-373v373h1490v-373h-373v-2606h373v-372h-1490zM744 3723v373h373v-373h-373zM1489 3723v373h-372v372h744v-372h373v-373h-745z" />
    <glyph glyph-name="Idieresis" unicode="&#xcf;" 
d="M744 0v372h373v2606h-373v373h1490v-373h-373v-2606h373v-372h-1490zM744 3723v373h-372v372h745v-745h-373zM1861 3723v373h-372v372h745v-745h-373z" />
    <glyph glyph-name="Eth" unicode="&#xd0;" 
d="M372 0v1117h-372v744h372v745h-372v372h372v373h1489v-373h373v-372h372v-1862h-372v-372h-373v2234h-372v372h-372v-1117h372v-744h-372v-745h744v-372h-1489z" />
    <glyph glyph-name="Ntilde" unicode="&#xd1;" 
d="M372 0v2606h-372v372h372v373h745v-745h372v-372h372v1117h745v-2979h-372v-372h-373v1489h-372v372h-372v-1489h-373v-372h-372zM372 3723v373h372v372h745v-372h-372v-373h-745zM1489 3723v373h372v372h745v-372h-372v-373h-745z" />
    <glyph glyph-name="Ograve" unicode="&#xd2;" 
d="M744 0v372h-372v372h-372v1490h372v372h372v-1862h373v-372h744v-372h-1117zM1861 372v2234h-372v372h-745v373h1117v-373h373v-372h372v-1862h-372v-372h-373zM1117 3723v373h-373v372h745v-372h372v-373h-744z" />
    <glyph glyph-name="Oacute" unicode="&#xd3;" 
d="M744 0v372h-372v372h-372v1490h372v372h372v-1862h373v-372h744v-372h-1117zM1861 372v2234h-372v372h-745v373h1117v-373h373v-372h372v-1862h-372v-372h-373zM1117 3723v373h372v372h745v-372h-373v-373h-744z" />
    <glyph glyph-name="Ocircumflex" unicode="&#xd4;" 
d="M744 0v372h-372v372h-372v1490h372v372h372v-1862h373v-372h744v-372h-1117zM1861 372v2234h-372v372h-745v373h1117v-373h373v-372h372v-1862h-372v-372h-373zM744 3723v373h373v-373h-373zM1489 3723v373h-372v372h744v-372h373v-373h-745z" />
    <glyph glyph-name="Otilde" unicode="&#xd5;" 
d="M744 0v372h-372v372h-372v1490h372v372h372v-1862h373v-372h744v-372h-1117zM1861 372v2234h-372v372h-745v373h1117v-373h373v-372h372v-1862h-372v-372h-373zM372 3723v373h372v372h745v-372h-372v-373h-745zM1489 3723v373h372v372h745v-372h-372v-373h-745z" />
    <glyph glyph-name="Odieresis" unicode="&#xd6;" 
d="M744 0v372h-372v372h-372v1490h372v372h372v-1862h373v-372h744v-372h-1117zM1861 372v2234h-372v372h-745v373h1117v-373h373v-372h372v-1862h-372v-372h-373zM744 3723v373h-372v372h745v-745h-373zM1861 3723v373h-372v372h745v-745h-373z" />
    <glyph glyph-name="Oslash" unicode="&#xd8;" 
d="M0 0v372h372v-372h-372zM1117 1489v372h372v-372h-372zM744 0v372h-372v372h-372v1490h372v372h372v-1117h373v-1117h744v-372h-1117zM1861 372v1489h-372v1117h-745v373h1117v-373h373v-372h372v-1862h-372v-372h-373zM2234 2978v373h372v-373h-372z" />
    <glyph glyph-name="Ugrave" unicode="&#xd9;" 
d="M744 0v372h-372v1117h-372v1489h372v373h372v-2607h373v-372h372v372h372v2234h373v373h372v-1862h-372v-1117h-373v-372h-1117zM1117 3723v373h-373v372h745v-372h372v-373h-744z" />
    <glyph glyph-name="Uacute" unicode="&#xda;" 
d="M744 0v372h-372v1117h-372v1489h372v373h372v-2607h373v-372h372v372h372v2234h373v373h372v-1862h-372v-1117h-373v-372h-1117zM1117 3723v373h372v372h745v-372h-373v-373h-744z" />
    <glyph glyph-name="Ucircumflex" unicode="&#xdb;" 
d="M744 0v372h-372v1117h-372v1489h372v373h372v-2607h373v-372h372v372h372v2234h373v373h372v-1862h-372v-1117h-373v-372h-1117zM744 3723v373h373v-373h-373zM1489 3723v373h-372v372h744v-372h373v-373h-745z" />
    <glyph glyph-name="Udieresis" unicode="&#xdc;" 
d="M744 0v372h-372v1117h-372v1489h372v373h372v-2607h373v-372h372v372h372v2234h373v373h372v-1862h-372v-1117h-373v-372h-1117zM744 3723v373h-372v372h745v-745h-373zM1861 3723v373h-372v372h745v-745h-373z" />
    <glyph glyph-name="Yacute" unicode="&#xdd;" 
d="M1117 0v1861h-373v373h-372v372h-372v372h372v373h372v-373h373v-372h372v-372h372v372h373v-745h-373v-1489h-372v-372h-372zM2234 2606v745h372v-745h-372zM1117 3723v373h372v372h745v-372h-373v-373h-744z" />
    <glyph glyph-name="Thorn" unicode="&#xde;" 
d="M1489 744v373h372v-373h-372zM372 0v2606h-372v372h372v373h745v-745h1117v-372h372v-745h-372v-372h-373v1117h-744v-1862h-373v-372h-372z" />
    <glyph glyph-name="germandbls" unicode="&#xdf;" 
d="M1117 0v372h744v-372h-744zM1489 2234v744h-372v-744h372zM372 0v2978h372v373h1117v-373h373v-744h-373v-373h373v-372h372v-745h-372v-372h-373v1117h-372v372h-372v-1489h-373v-372h-372z" />
    <glyph glyph-name="agrave" unicode="&#xe0;" 
d="M372 0v372h-372v1117h372v-745h372v-372h745v-372h-1117zM1861 0v372h-372v1117h-1117v372h745v373h372v-373h372v-372h373v-745h372v-372h-372v-372h-373zM372 2234v372h745v-372h-745zM744 2978v373h-372v372h745v-372h372v-373h-745z" />
    <glyph glyph-name="aacute" unicode="&#xe1;" 
d="M372 0v372h-372v1117h372v-745h372v-372h745v-372h-1117zM1861 0v372h-372v1117h-1117v372h745v373h372v-373h372v-372h373v-745h372v-372h-372v-372h-373zM372 2234v372h745v-372h-745zM744 2978v373h373v372h744v-372h-372v-373h-745z" />
    <glyph glyph-name="acircumflex" unicode="&#xe2;" 
d="M372 0v372h-372v1117h372v-745h372v-372h745v-372h-1117zM1861 0v372h-372v1117h-1117v372h745v373h372v-373h372v-372h373v-745h372v-372h-372v-372h-373zM372 2234v372h745v-372h-745zM372 2978v373h372v-373h-372zM1117 2978v373h-373v372h745v-372h372v-373h-744z
" />
    <glyph glyph-name="atilde" unicode="&#xe3;" 
d="M372 0v372h-372v1117h372v-745h372v-372h745v-372h-1117zM1861 0v372h-372v1117h-1117v372h745v373h372v-373h372v-372h373v-745h372v-372h-372v-372h-373zM372 2234v372h745v-372h-745zM372 2978v373h372v372h745v-372h-372v-373h-745zM1489 2978v373h372v372h745v-372
h-372v-373h-745z" />
    <glyph glyph-name="adieresis" unicode="&#xe4;" 
d="M372 0v372h-372v1117h372v-745h372v-372h745v-372h-1117zM1861 0v372h-372v1117h-1117v372h745v373h372v-373h372v-372h373v-745h372v-372h-372v-372h-373zM372 2234v372h745v-372h-745zM744 2978v373h-372v372h745v-745h-373zM1861 2978v373h-372v372h745v-745h-373z
" />
    <glyph glyph-name="aring" unicode="&#xe5;" 
d="M372 0v372h-372v1117h372v-745h372v-372h745v-372h-1117zM1861 0v372h-372v1117h-1117v372h745v373h372v-373h372v-372h373v-745h372v-372h-372v-372h-373zM372 2234v372h745v-372h-745zM744 2978v745h745v-745h-745z" />
    <glyph glyph-name="ae" unicode="&#xe6;" 
d="M372 0v372h-372v1117h372v-745h372v-372h373v-372h-745zM1489 0v372h-372v1117h-745v372h745v373h372v-1490h372v-372h745v-372h-1117zM372 2234v372h745v-372h-745zM1861 1489v372h373v373h-745v372h1117v-372h372v-373h-372v-372h-745z" />
    <glyph glyph-name="ccedilla" unicode="&#xe7;" 
d="M744 -744v372h373v744h-373v372h-372v1117h372v373h373v-1490h372v-372h745v-372h-373v-372h-372v-372h-745zM1861 1861v373h-744v372h1117v-372h372v-373h-745z" />
    <glyph glyph-name="egrave" unicode="&#xe8;" 
d="M1117 0v372h-373v372h-372v1117h372v373h373v-1490h372v-372h745v-372h-1117zM1489 1489v372h372v373h-744v372h1117v-372h372v-373h-372v-372h-745zM1117 2978v373h-373v372h745v-372h372v-373h-744z" />
    <glyph glyph-name="eacute" unicode="&#xe9;" 
d="M1117 0v372h-373v372h-372v1117h372v373h373v-1490h372v-372h745v-372h-1117zM1489 1489v372h372v373h-744v372h1117v-372h372v-373h-372v-372h-745zM1117 2978v373h372v372h745v-372h-373v-373h-744z" />
    <glyph glyph-name="ecircumflex" unicode="&#xea;" 
d="M1117 0v372h-373v372h-372v1117h372v373h373v-1490h372v-372h745v-372h-1117zM1489 1489v372h372v373h-744v372h1117v-372h372v-373h-372v-372h-745zM744 2978v373h373v-373h-373zM1489 2978v373h-372v372h744v-372h373v-373h-745z" />
    <glyph glyph-name="edieresis" unicode="&#xeb;" 
d="M1117 0v372h-373v372h-372v1117h372v373h373v-1490h372v-372h745v-372h-1117zM1489 1489v372h372v373h-744v372h1117v-372h372v-373h-372v-372h-745zM744 2978v373h-372v372h745v-745h-373zM1861 2978v373h-372v372h745v-745h-373z" />
    <glyph glyph-name="igrave" unicode="&#xec;" 
d="M1117 0v1861h-373v373h373v372h744v-2234h-372v-372h-372zM1117 2978v373h-373v372h745v-372h372v-373h-744z" />
    <glyph glyph-name="iacute" unicode="&#xed;" 
d="M1117 0v1861h-373v373h373v372h744v-2234h-372v-372h-372zM1117 2978v373h372v372h745v-372h-373v-373h-744z" />
    <glyph glyph-name="icircumflex" unicode="&#xee;" 
d="M1117 0v1861h-373v373h373v372h744v-2234h-372v-372h-372zM744 2978v373h373v-373h-373zM1489 2978v373h-372v372h744v-372h373v-373h-745z" />
    <glyph glyph-name="idieresis" unicode="&#xef;" 
d="M1117 0v1861h-373v373h373v372h744v-2234h-372v-372h-372zM744 2978v373h-372v372h745v-745h-373zM1861 2978v373h-372v372h745v-745h-373z" />
    <glyph glyph-name="eth" unicode="&#xf0;" 
d="M372 0v372h-372v1117h372v372h372v-1117h373v-372h744v-372h-1489zM372 2234v372h372v-372h-372zM1861 372v1489h-372v373h-372v372h-373v372h-372v373h745v-373h372v-372h372v-372h373v-373h372v-1117h-372v-372h-373zM1489 2978v373h372v-373h-372z" />
    <glyph glyph-name="ntilde" unicode="&#xf1;" 
d="M372 0v1861h-372v373h372v372h372v-372h745v372h745v-372h372v-1862h-372v-372h-373v1861h-744v-372h-373v-1489h-372zM372 2978v373h372v372h745v-372h-372v-373h-745zM1489 2978v373h372v372h745v-372h-372v-373h-745z" />
    <glyph glyph-name="ograve" unicode="&#xf2;" 
d="M744 0v372h-372v372h-372v1117h372v373h372v-1490h373v-372h744v-372h-1117zM1861 372v1489h-372v373h-372v372h1117v-372h372v-1490h-372v-372h-373zM1117 2978v373h-373v372h745v-372h372v-373h-744z" />
    <glyph glyph-name="oacute" unicode="&#xf3;" 
d="M744 0v372h-372v372h-372v1117h372v373h372v-1490h373v-372h744v-372h-1117zM1861 372v1489h-372v373h-372v372h1117v-372h372v-1490h-372v-372h-373zM1117 2978v373h372v372h745v-372h-373v-373h-744z" />
    <glyph glyph-name="ocircumflex" unicode="&#xf4;" 
d="M744 0v372h-372v372h-372v1117h372v373h372v-1490h373v-372h744v-372h-1117zM1861 372v1489h-372v373h-372v372h1117v-372h372v-1490h-372v-372h-373zM744 2978v373h373v-373h-373zM1489 2978v373h-372v372h744v-372h373v-373h-745z" />
    <glyph glyph-name="otilde" unicode="&#xf5;" 
d="M744 0v372h-372v372h-372v1117h372v373h372v-1490h373v-372h744v-372h-1117zM1861 372v1489h-372v373h-372v372h1117v-372h372v-1490h-372v-372h-373zM372 2978v373h372v372h745v-372h-372v-373h-745zM1489 2978v373h372v372h745v-372h-372v-373h-745z" />
    <glyph glyph-name="odieresis" unicode="&#xf6;" 
d="M744 0v372h-372v372h-372v1117h372v373h372v-1490h373v-372h744v-372h-1117zM1861 372v1489h-372v373h-372v372h1117v-372h372v-1490h-372v-372h-373zM744 2978v373h-372v372h745v-745h-373zM1861 2978v373h-372v372h745v-745h-373z" />
    <glyph glyph-name="divide" unicode="&#xf7;" 
d="M1117 372v372h-373v373h745v-745h-372zM0 1489v372h372v373h1862v-373h-373v-372h-1861zM1117 2606v372h-373v373h745v-745h-372z" />
    <glyph glyph-name="oslash" unicode="&#xf8;" 
d="M0 0v372h372v-372h-372zM1117 1117v372h372v-372h-372zM744 0v372h-372v372h-372v1117h372v373h372v-1117h373v-745h744v-372h-1117zM1861 372v1117h-372v745h-372v372h744v-372h373v-373h372v-1117h-372v-372h-373zM2234 2234v372h372v-372h-372z" />
    <glyph glyph-name="ugrave" unicode="&#xf9;" 
d="M744 0v372h-372v1489h-372v373h372v372h745v-1862h372v-372h-372v-372h-373zM1861 0v744h-372v745h372v1117h745v-2234h-372v-372h-373zM1117 2978v373h-373v372h745v-372h372v-373h-744z" />
    <glyph glyph-name="uacute" unicode="&#xfa;" 
d="M744 0v372h-372v1489h-372v373h372v372h745v-1862h372v-372h-372v-372h-373zM1861 0v744h-372v745h372v1117h745v-2234h-372v-372h-373zM1117 2978v373h372v372h745v-372h-373v-373h-744z" />
    <glyph glyph-name="ucircumflex" unicode="&#xfb;" 
d="M744 0v372h-372v1489h-372v373h372v372h745v-1862h372v-372h-372v-372h-373zM1861 0v744h-372v745h372v1117h745v-2234h-372v-372h-373zM744 2978v373h373v-373h-373zM1489 2978v373h-372v372h744v-372h373v-373h-745z" />
    <glyph glyph-name="udieresis" unicode="&#xfc;" 
d="M744 0v372h-372v1489h-372v373h372v372h745v-1862h372v-372h-372v-372h-373zM1861 0v744h-372v745h372v1117h745v-2234h-372v-372h-373zM744 2978v373h-372v372h745v-745h-373zM1861 2978v373h-372v372h745v-745h-373z" />
    <glyph glyph-name="yacute" unicode="&#xfd;" 
d="M744 372v372h-372v1117h-372v373h372v372h372v-745h373v-1117h372v-372h-745zM1861 -744v1488h-372v373h372v372h373v1117h372v-2978h-372v-372h-373zM1117 2978v373h372v372h745v-372h-373v-373h-744z" />
    <glyph glyph-name="thorn" unicode="&#xfe;" 
d="M1489 372v372h372v-372h-372zM1861 744v1490h-372v372h745v-372h372v-1117h-372v-373h-373zM372 -744v3350h-372v372h372v373h745v-1117h372v-373h-372v-2233h-373v-372h-372z" />
    <glyph glyph-name="ydieresis" unicode="&#xff;" 
d="M744 372v372h-372v1117h-372v373h372v372h372v-745h373v-1117h372v-372h-745zM1861 -744v1488h-372v373h372v372h373v1117h372v-2978h-372v-372h-373zM744 2978v373h-372v372h745v-745h-373zM1861 2978v373h-372v372h745v-745h-373z" />
    <glyph glyph-name="Amacron" unicode="&#x100;" 
d="M0 0v744h372v745h372v-372h1117v372h-372v745h-372v-745h-373v1117h373v745h744v-1117h373v-1490h372v-744h-745v744h-1117v-372h-372v-372h-372zM744 3723v373h373v372h1489v-372h-372v-373h-1490z" />
    <glyph glyph-name="amacron" unicode="&#x101;" 
d="M372 0v372h-372v1117h372v-745h372v-372h745v-372h-1117zM1861 0v372h-372v1117h-1117v372h745v373h372v-373h372v-372h373v-745h372v-372h-372v-372h-373zM372 2234v372h745v-372h-745zM372 2978v373h372v372h1490v-372h-373v-373h-1489z" />
    <glyph glyph-name="Aogonek" unicode="&#x104;" 
d="M1861 -744v372h-372v372h372v744h-1117v-372h-372v-372h-372v744h372v745h372v-372h1117v372h-372v745h-372v-745h-373v1117h373v745h744v-1117h373v-1490h372v-744h-372v-372h372v-372h-745z" />
    <glyph glyph-name="aogonek" unicode="&#x105;" 
d="M372 0v372h-372v1117h372v-745h372v-372h745v-372h-1117zM1861 -744v372h-372v372h372v372h-372v1117h-1117v372h745v373h372v-373h372v-372h373v-745h372v-372h-372v-744h372v-372h-745zM372 2234v372h745v-372h-745z" />
    <glyph glyph-name="Cacute" unicode="&#x106;" 
d="M744 0v372h-372v372h-372v1862h372v-1117h372v-372h373v-373h1117v-372h-373v-372h-1117zM372 2606v372h372v-372h-372zM1861 2234v372h-372v372h-745v373h1117v-373h745v-372h-372v-372h-373zM744 3723v373h373v372h744v-372h-372v-373h-745z" />
    <glyph glyph-name="cacute" unicode="&#x107;" 
d="M1117 0v372h-373v372h-372v1117h372v373h373v-1490h372v-372h745v-372h-1117zM1861 1861v373h-744v372h1117v-372h372v-373h-745zM1117 2978v373h372v372h745v-372h-373v-373h-744z" />
    <glyph glyph-name="Ccircumflex" unicode="&#x108;" 
d="M744 0v372h-372v372h-372v1862h372v-1117h372v-372h373v-373h1117v-372h-373v-372h-1117zM372 2606v372h372v-372h-372zM1861 2234v372h-372v372h-745v373h1117v-373h745v-372h-372v-372h-373zM744 3723v373h373v-373h-373zM1489 3723v373h-372v372h744v-372h373v-373
h-745z" />
    <glyph glyph-name="ccircumflex" unicode="&#x109;" 
d="M1117 0v372h-373v372h-372v1117h372v373h373v-1490h372v-372h745v-372h-1117zM1861 1861v373h-744v372h1117v-372h372v-373h-745zM744 2978v373h373v-373h-373zM1489 2978v373h-372v372h744v-372h373v-373h-745z" />
    <glyph glyph-name="Cdotaccent" unicode="&#x10a;" 
d="M744 0v372h-372v372h-372v1862h372v-1117h372v-372h373v-373h1117v-372h-373v-372h-1117zM372 2606v372h372v-372h-372zM1861 2234v372h-372v372h-745v373h1117v-373h745v-372h-372v-372h-373zM1489 3723v373h-372v372h744v-745h-372z" />
    <glyph glyph-name="cdotaccent" unicode="&#x10b;" 
d="M1117 0v372h-373v372h-372v1117h372v373h373v-1490h372v-372h745v-372h-1117zM1861 1861v373h-744v372h1117v-372h372v-373h-745zM1489 2978v373h-372v372h744v-745h-372z" />
    <glyph glyph-name="Ccaron" unicode="&#x10c;" 
d="M744 0v372h-372v372h-372v1862h372v-1117h372v-372h373v-373h1117v-372h-373v-372h-1117zM372 2606v372h372v-372h-372zM1861 2234v372h-372v372h-745v373h1117v-373h745v-372h-372v-372h-373zM1117 3723v373h-373v372h745v-372h372v-373h-744zM1861 4096v372h373v-372
h-373z" />
    <glyph glyph-name="ccaron" unicode="&#x10d;" 
d="M1117 0v372h-373v372h-372v1117h372v373h373v-1490h372v-372h745v-372h-1117zM1861 1861v373h-744v372h1117v-372h372v-373h-745zM1117 2978v373h-373v372h745v-372h372v-373h-744zM1861 3351v372h373v-372h-373z" />
    <glyph glyph-name="Dcroat" unicode="&#x110;" 
d="M372 0v1117h-372v744h372v745h-372v372h372v373h1489v-373h373v-372h372v-1862h-372v-372h-373v2234h-372v372h-372v-1117h372v-744h-372v-745h744v-372h-1489z" />
    <glyph glyph-name="Emacron" unicode="&#x112;" 
d="M744 0v372h-372v372h-372v1862h372v372h372v373h1490v-373h372v-372h-745v372h-744v-372h-373v-372h1490v-373h-1490v-744h373v-373h1117v-372h-373v-372h-1117zM372 3723v373h372v372h1490v-372h-373v-373h-1489z" />
    <glyph glyph-name="emacron" unicode="&#x113;" 
d="M1117 0v372h-373v372h-372v1117h372v373h373v-1490h372v-372h745v-372h-1117zM1489 1489v372h372v373h-744v372h1117v-372h372v-373h-372v-372h-745zM744 2978v373h373v372h1489v-372h-372v-373h-1490z" />
    <glyph glyph-name="Edotaccent" unicode="&#x116;" 
d="M744 0v372h-372v372h-372v1862h372v372h372v373h1490v-373h372v-372h-745v372h-744v-372h-373v-372h1490v-373h-1490v-744h373v-373h1117v-372h-373v-372h-1117zM1489 3723v373h-372v372h744v-745h-372z" />
    <glyph glyph-name="edotaccent" unicode="&#x117;" 
d="M1117 0v372h-373v372h-372v1117h372v373h373v-1490h372v-372h745v-372h-1117zM1489 1489v372h372v373h-744v372h1117v-372h372v-373h-372v-372h-745zM1489 2978v373h-372v372h744v-745h-372z" />
    <glyph glyph-name="Eogonek" unicode="&#x118;" 
d="M1489 -744v372h-372v372h-373v372h-372v372h-372v1862h372v372h372v373h1490v-373h372v-372h-745v372h-744v-372h-373v-372h1490v-373h-1490v-744h373v-373h1117v-372h-373v-744h373v-372h-745z" />
    <glyph glyph-name="eogonek" unicode="&#x119;" 
d="M1489 -744v372h-372v744h-373v372h-372v1117h372v373h373v-1490h372v-372h745v-372h-373v-372h373v-372h-745zM1489 1489v372h372v373h-744v372h1117v-372h372v-373h-372v-372h-745z" />
    <glyph glyph-name="Ecaron" unicode="&#x11a;" 
d="M744 0v372h-372v372h-372v1862h372v372h372v373h1490v-373h372v-372h-745v372h-744v-372h-373v-372h1490v-373h-1490v-744h373v-373h1117v-372h-373v-372h-1117zM1117 3723v373h-373v372h745v-372h372v-373h-744zM1861 4096v372h373v-372h-373z" />
    <glyph glyph-name="ecaron" unicode="&#x11b;" 
d="M1117 0v372h-373v372h-372v1117h372v373h373v-1490h372v-372h745v-372h-1117zM1489 1489v372h372v373h-744v372h1117v-372h372v-373h-372v-372h-745zM1117 2978v373h-373v372h745v-372h372v-373h-744zM1861 3351v372h373v-372h-373z" />
    <glyph glyph-name="Gcircumflex" unicode="&#x11c;" 
d="M2234 744v373h-373v372h-372v372h372v373h373v-373h372v-1117h-372zM744 0v372h-372v372h-372v1862h372v-1117h372v-372h373v-373h1117v-372h-373v-372h-1117zM372 2606v372h372v-372h-372zM1861 2606v372h-1117v373h1490v-373h372v-372h-745zM744 3723v373h373v-373
h-373zM1489 3723v373h-372v372h744v-372h373v-373h-745z" />
    <glyph glyph-name="gcircumflex" unicode="&#x11d;" 
d="M372 -744v372h-372v372h744v-372h745v372h372v372h-744v372h-745v745h-372v372h372v373h372v-745h745v-745h745v-372h372v-372h-372v-372h-373v-372h-1489zM1489 1489v745h-745v372h1862v-372h-372v-373h-373v-372h-372zM744 2978v373h373v-373h-373zM1489 2978v373h-372
v372h744v-372h373v-373h-745z" />
    <glyph glyph-name="Gdotaccent" unicode="&#x120;" 
d="M2234 744v373h-373v372h-372v372h372v373h373v-373h372v-1117h-372zM744 0v372h-372v372h-372v1862h372v-1117h372v-372h373v-373h1117v-372h-373v-372h-1117zM372 2606v372h372v-372h-372zM1861 2606v372h-1117v373h1490v-373h372v-372h-745zM1489 3723v373h-372v372
h744v-745h-372z" />
    <glyph glyph-name="gdotaccent" unicode="&#x121;" 
d="M372 -744v372h-372v372h744v-372h745v372h372v372h-744v372h-745v745h-372v372h372v373h372v-745h745v-745h745v-372h372v-372h-372v-372h-373v-372h-1489zM1489 1489v745h-745v372h1862v-372h-372v-373h-373v-372h-372zM1489 2978v373h-372v372h744v-745h-372z" />
    <glyph glyph-name="uni0122" unicode="&#x122;" 
d="M2234 744v373h-373v372h-372v372h372v373h373v-373h372v-1117h-372zM744 -744v372h373v372h-373v372h-372v372h-372v1862h372v-1117h372v-372h373v-373h1117v-372h-373v-744h-372v-372h-745zM372 2606v372h372v-372h-372zM1861 2606v372h-1117v373h1490v-373h372v-372
h-745z" />
    <glyph glyph-name="uni0123" unicode="&#x123;" 
d="M372 -744v372h-372v372h744v-372h745v372h372v372h-744v372h-745v745h-372v372h372v373h372v-745h745v-745h745v-372h372v-372h-372v-372h-373v-372h-1489zM1489 1489v745h-745v372h1862v-372h-372v-373h-373v-372h-372zM1117 2978v373h-373v372h373v373h372v-745h372
v-373h-744z" />
    <glyph glyph-name="Hcircumflex" unicode="&#x124;" 
d="M372 0v1861h-372v373h372v372h-372v372h372v373h745v-1117h744v372h-372v372h372v373h745v-2979h-372v-372h-373v1861h-744v-1489h-373v-372h-372zM744 3723v373h373v-373h-373zM1489 3723v373h-372v372h744v-372h373v-373h-745z" />
    <glyph glyph-name="hcircumflex" unicode="&#x125;" 
d="M1861 0v1861h-372v373h372v372h373v-372h372v-1862h-372v-372h-373zM372 0v2606h-372v372h372v373h745v-1490h372v-372h-372v-745h-373v-744h-372zM0 3723v373h372v-373h-372zM744 3723v373h-372v372h745v-372h372v-373h-745z" />
    <glyph glyph-name="Itilde" unicode="&#x128;" 
d="M744 0v372h373v2606h-373v373h1490v-373h-373v-2606h373v-372h-1490zM372 3723v373h372v372h745v-372h-372v-373h-745zM1489 3723v373h372v372h745v-372h-372v-373h-745z" />
    <glyph glyph-name="itilde" unicode="&#x129;" 
d="M1117 0v1861h-373v373h373v372h744v-2234h-372v-372h-372zM372 2978v373h372v372h745v-372h-372v-373h-745zM1489 2978v373h372v372h745v-372h-372v-373h-745z" />
    <glyph glyph-name="Imacron" unicode="&#x12a;" 
d="M744 0v372h373v2606h-373v373h1490v-373h-373v-2606h373v-372h-1490zM744 3723v373h373v372h1489v-372h-372v-373h-1490z" />
    <glyph glyph-name="imacron" unicode="&#x12b;" 
d="M1117 0v1861h-373v373h373v372h744v-2234h-372v-372h-372zM372 2978v373h372v372h1490v-372h-373v-373h-1489z" />
    <glyph glyph-name="Iogonek" unicode="&#x12e;" 
d="M1489 -744v372h-372v372h-373v372h373v2606h-373v373h1490v-373h-373v-2606h373v-372h-373v-372h373v-372h-745z" />
    <glyph glyph-name="iogonek" unicode="&#x12f;" 
d="M1489 -744v372h-372v2233h-373v373h373v372h744v-2234h-372v-372h372v-372h373v-372h-745zM1117 2978v373h744v-373h-744z" />
    <glyph glyph-name="Idotaccent" unicode="&#x130;" 
d="M744 0v372h373v2606h-373v373h1490v-373h-373v-2606h373v-372h-1490zM1489 3723v373h-372v372h744v-745h-372z" />
    <glyph glyph-name="dotlessi" unicode="&#x131;" 
d="M1117 0v1861h-373v373h373v372h744v-2234h-372v-372h-372z" />
    <glyph glyph-name="Jcircumflex" unicode="&#x134;" 
d="M744 -372v372h373v2606h-373v372h373v373h744v-3351h-372v-372h-745zM744 3723v373h373v-373h-373zM1489 3723v373h-372v372h744v-372h373v-373h-745z" />
    <glyph glyph-name="jcircumflex" unicode="&#x135;" 
d="M1117 -744v3350h744v-2978h-372v-372h-372zM744 2978v373h373v-373h-373zM1489 2978v373h-372v372h744v-372h373v-373h-745z" />
    <glyph glyph-name="Lacute" unicode="&#x139;" 
d="M372 0v2606h-372v372h372v373h745v-2979h1117v-372h-1862zM372 3723v373h372v372h745v-372h-372v-373h-745z" />
    <glyph glyph-name="lacute" unicode="&#x13a;" 
d="M1117 0v2606h-373v372h373v373h744v-2979h-372v-372h-372zM1117 3723v373h372v372h745v-372h-373v-373h-744z" />
    <glyph glyph-name="uni013B" unicode="&#x13b;" 
d="M744 -744v372h373v372h-745v2606h-372v372h372v373h745v-2979h1117v-372h-373v-372h-372v-372h-745z" />
    <glyph glyph-name="uni013C" unicode="&#x13c;" 
d="M744 -744v372h373v2978h-373v372h373v373h744v-2979h-372v-372h372v-372h-372v-372h-745z" />
    <glyph glyph-name="Lcaron" unicode="&#x13d;" 
d="M372 0v2606h-372v372h372v373h745v-2979h1117v-372h-1862zM1861 2606v745h-372v372h745v-372h372v-373h-372v-372h-373z" />
    <glyph glyph-name="lcaron" unicode="&#x13e;" 
d="M372 0v2606h-372v372h372v373h745v-2979h-373v-372h-372zM1861 2606v745h-372v372h745v-372h372v-373h-372v-372h-373z" />
    <glyph glyph-name="Ldot" unicode="&#x13f;" 
d="M1861 1489v372h-372v373h745v-745h-373zM372 0v2606h-372v372h372v373h745v-2979h1117v-372h-1862z" />
    <glyph glyph-name="ldot" unicode="&#x140;" 
d="M2234 1489v372h-373v373h745v-745h-372zM744 0v2606h-372v372h372v373h745v-2979h-372v-372h-373z" />
    <glyph glyph-name="Lslash" unicode="&#x141;" 
d="M744 0v1117h-744v372h372v372h372v745h-372v372h372v373h745v-1117h745v-373h-373v-372h-372v-1117h1117v-372h-1862z" />
    <glyph glyph-name="lslash" unicode="&#x142;" 
d="M1117 0v1117h-745v372h372v372h373v745h-373v372h373v373h744v-1117h745v-373h-372v-372h-373v-1117h-372v-372h-372z" />
    <glyph glyph-name="Nacute" unicode="&#x143;" 
d="M372 0v2606h-372v372h372v373h745v-745h372v-372h372v1117h745v-2979h-372v-372h-373v1489h-372v372h-372v-1489h-373v-372h-372zM1117 3723v373h372v372h745v-372h-373v-373h-744z" />
    <glyph glyph-name="nacute" unicode="&#x144;" 
d="M372 0v1861h-372v373h372v372h372v-372h745v372h745v-372h372v-1862h-372v-372h-373v1861h-744v-372h-373v-1489h-372zM744 2978v373h373v372h744v-372h-372v-373h-745z" />
    <glyph glyph-name="uni0145" unicode="&#x145;" 
d="M1117 -744v372h372v372h372v1489h-372v372h-372v-1489h-373v-372h-372v2606h-372v372h372v373h745v-745h372v-372h372v1117h745v-2979h-372v-744h-373v-372h-744z" />
    <glyph glyph-name="uni0146" unicode="&#x146;" 
d="M1117 -744v372h372v372h372v1861h-744v-372h-373v-1489h-372v1861h-372v373h372v372h372v-372h745v372h745v-372h372v-1862h-372v-744h-373v-372h-744z" />
    <glyph glyph-name="Ncaron" unicode="&#x147;" 
d="M372 0v2606h-372v372h372v373h745v-745h372v-372h372v1117h745v-2979h-372v-372h-373v1489h-372v372h-372v-1489h-373v-372h-372zM1117 3723v373h-373v372h745v-372h372v-373h-744zM1861 4096v372h373v-372h-373z" />
    <glyph glyph-name="ncaron" unicode="&#x148;" 
d="M372 0v1861h-372v373h372v372h372v-372h745v372h745v-372h372v-1862h-372v-372h-373v1861h-744v-372h-373v-1489h-372zM1117 2978v373h-373v372h745v-372h372v-373h-744zM1861 3351v372h373v-372h-373z" />
    <glyph glyph-name="Omacron" unicode="&#x14c;" 
d="M744 0v372h-372v372h-372v1490h372v372h372v-1862h373v-372h744v-372h-1117zM1861 372v2234h-372v372h-745v373h1117v-373h373v-372h372v-1862h-372v-372h-373zM372 3723v373h372v372h1490v-372h-373v-373h-1489z" />
    <glyph glyph-name="omacron" unicode="&#x14d;" 
d="M744 0v372h-372v372h-372v1117h372v373h372v-1490h373v-372h744v-372h-1117zM1861 372v1489h-372v373h-372v372h1117v-372h372v-1490h-372v-372h-373zM372 2978v373h372v372h1490v-372h-373v-373h-1489z" />
    <glyph glyph-name="OE" unicode="&#x152;" 
d="M744 0v372h-372v372h-372v1490h372v372h372v-1862h373v-372h372v-372h-745zM744 2978v373h745v-373h-745zM1861 0v372h-372v2606h372v373h1117v-373h373v-372h-745v372h-372v-372h-373v-372h1117v-373h-1117v-744h373v-373h744v-372h-372v-372h-745z" />
    <glyph glyph-name="oe" unicode="&#x153;" 
d="M744 0v372h-372v372h-372v1117h372v373h372v-1490h373v1490h372v-1490h372v-372h745v-372h-1117v372h-372v-372h-373zM744 2234v372h373v-372h-373zM1861 1489v372h373v373h-745v372h1117v-372h372v-373h-372v-372h-745z" />
    <glyph glyph-name="Racute" unicode="&#x154;" 
d="M1861 0v744h-372v1117h372v-372h373v-745h372v-744h-745zM372 0v2606h-372v372h372v373h1862v-373h372v-744h-372v-373h-373v1117h-744v-2606h-373v-372h-372zM744 3723v373h373v372h744v-372h-372v-373h-745z" />
    <glyph glyph-name="racute" unicode="&#x155;" 
d="M372 0v1861h-372v373h372v372h745v-372h372v-373h-372v-1489h-373v-372h-372zM1861 1489v745h-372v372h745v-372h372v-373h-372v-372h-373zM744 2978v373h373v372h744v-372h-372v-373h-745z" />
    <glyph glyph-name="uni0156" unicode="&#x156;" 
d="M744 -744v372h373v372h744v-372h-372v-372h-745zM1861 0v744h-372v1117h372v-372h373v-745h372v-744h-745zM372 0v2606h-372v372h372v373h1862v-373h372v-744h-372v-373h-373v1117h-744v-2606h-373v-372h-372z" />
    <glyph glyph-name="uni0157" unicode="&#x157;" 
d="M0 -744v372h372v2233h-372v373h372v372h745v-372h372v-373h-372v-1489h-373v-372h373v-372h-373v-372h-744zM1861 1489v745h-372v372h745v-372h372v-373h-372v-372h-373z" />
    <glyph glyph-name="Rcaron" unicode="&#x158;" 
d="M1861 0v744h-372v1117h372v-372h373v-745h372v-744h-745zM372 0v2606h-372v372h372v373h1862v-373h372v-744h-372v-373h-373v1117h-744v-2606h-373v-372h-372zM1117 3723v373h-373v372h745v-372h372v-373h-744zM1861 4096v372h373v-372h-373z" />
    <glyph glyph-name="rcaron" unicode="&#x159;" 
d="M372 0v1861h-372v373h372v372h745v-372h372v-373h-372v-1489h-373v-372h-372zM1861 1489v745h-372v372h745v-372h372v-373h-372v-372h-373zM744 2978v373h-372v372h745v-372h372v-373h-745zM1489 3351v372h372v-372h-372z" />
    <glyph glyph-name="Sacute" unicode="&#x15a;" 
d="M372 0v372h-372v372h372v373h372v-745h745v-372h-1117zM1489 372v372h372v745h-372v372h-1117v373h-372v372h372v372h372v-372h373v-372h1117v-373h372v-1117h-372v-372h-745zM1861 2606v372h-1117v373h1490v-373h372v-372h-745zM1117 3723v373h372v372h745v-372h-373
v-373h-744z" />
    <glyph glyph-name="sacute" unicode="&#x15b;" 
d="M744 0v372h-372v372h745v-372h744v-372h-1117zM1861 372v745h-372v372h-745v372h-372v373h372v372h1862v-372h-1117v-373h745v-372h372v-745h-372v-372h-373zM1117 2978v373h372v372h745v-372h-373v-373h-744z" />
    <glyph glyph-name="Scircumflex" unicode="&#x15c;" 
d="M372 0v372h-372v372h372v373h372v-745h745v-372h-1117zM1489 372v372h372v745h-372v372h-1117v373h-372v372h372v372h372v-372h373v-372h1117v-373h372v-1117h-372v-372h-745zM1861 2606v372h-1117v373h1490v-373h372v-372h-745zM744 3723v373h373v-373h-373zM1489 3723
v373h-372v372h744v-372h373v-373h-745z" />
    <glyph glyph-name="scircumflex" unicode="&#x15d;" 
d="M744 0v372h-372v372h745v-372h744v-372h-1117zM1861 372v745h-372v372h-745v372h-372v373h372v372h1862v-372h-1117v-373h745v-372h372v-745h-372v-372h-373zM744 2978v373h373v-373h-373zM1489 2978v373h-372v372h744v-372h373v-373h-745z" />
    <glyph glyph-name="Scedilla" unicode="&#x15e;" 
d="M372 -744v372h372v372h-372v372h-372v372h372v373h372v-745h745v-744h-372v-372h-745zM1489 372v372h372v745h-372v372h-1117v373h-372v372h372v372h372v-372h373v-372h1117v-373h372v-1117h-372v-372h-745zM1861 2606v372h-1117v373h1490v-373h372v-372h-745z" />
    <glyph glyph-name="scedilla" unicode="&#x15f;" 
d="M744 -744v372h373v372h-373v372h-372v372h745v-372h744v-744h-372v-372h-745zM1861 372v745h-372v372h-745v372h-372v373h372v372h1862v-372h-1117v-373h745v-372h372v-745h-372v-372h-373z" />
    <glyph glyph-name="Scaron" unicode="&#x160;" 
d="M372 0v372h-372v372h372v373h372v-745h745v-372h-1117zM1489 372v372h372v745h-372v372h-1117v373h-372v372h372v372h372v-372h373v-372h1117v-373h372v-1117h-372v-372h-745zM1861 2606v372h-1117v373h1490v-373h372v-372h-745zM1117 3723v373h-373v372h745v-372h372
v-373h-744zM1861 4096v372h373v-372h-373z" />
    <glyph glyph-name="scaron" unicode="&#x161;" 
d="M744 0v372h-372v372h745v-372h744v-372h-1117zM1861 372v745h-372v372h-745v372h-372v373h372v372h1862v-372h-1117v-373h745v-372h372v-745h-372v-372h-373zM1117 2978v373h-373v372h745v-372h372v-373h-744zM1861 3351v372h373v-372h-373z" />
    <glyph glyph-name="uni0162" unicode="&#x162;" 
d="M744 -744v372h373v3350h-745v373h2234v-373h-745v-2606h-372v-372h372v-372h-372v-372h-745z" />
    <glyph glyph-name="uni0163" unicode="&#x163;" 
d="M1117 -744v372h372v372h-372v2234h-373v372h373v745h744v-745h373v-372h-373v-1490h373v-372h-373v-372h373v-372h-373v-372h-744z" />
    <glyph glyph-name="Tcaron" unicode="&#x164;" 
d="M1117 0v2978h-745v373h2234v-373h-745v-2606h-372v-372h-372zM1117 3723v373h-373v372h745v-372h372v-373h-744zM1861 4096v372h373v-372h-373z" />
    <glyph glyph-name="tcaron" unicode="&#x165;" 
d="M372 0v2234h-372v372h372v745h745v-745h372v-372h-372v-1490h372v-372h-372v-372h-745zM1861 2606v745h-372v372h745v-372h372v-373h-372v-372h-373z" />
    <glyph glyph-name="Utilde" unicode="&#x168;" 
d="M744 0v372h-372v1117h-372v1489h372v373h372v-2607h373v-372h372v372h372v2234h373v373h372v-1862h-372v-1117h-373v-372h-1117zM372 3723v373h372v372h745v-372h-372v-373h-745zM1489 3723v373h372v372h745v-372h-372v-373h-745z" />
    <glyph glyph-name="utilde" unicode="&#x169;" 
d="M744 0v372h-372v1489h-372v373h372v372h745v-1862h372v-372h-372v-372h-373zM1861 0v744h-372v745h372v1117h745v-2234h-372v-372h-373zM372 2978v373h372v372h745v-372h-372v-373h-745zM1489 2978v373h372v372h745v-372h-372v-373h-745z" />
    <glyph glyph-name="Umacron" unicode="&#x16a;" 
d="M744 0v372h-372v1117h-372v1489h372v373h372v-2607h373v-372h372v372h372v2234h373v373h372v-1862h-372v-1117h-373v-372h-1117zM372 3723v373h372v372h1490v-372h-373v-373h-1489z" />
    <glyph glyph-name="umacron" unicode="&#x16b;" 
d="M744 0v372h-372v1489h-372v373h372v372h745v-1862h372v-372h-372v-372h-373zM1861 0v744h-372v745h372v1117h745v-2234h-372v-372h-373zM744 2978v373h373v372h1489v-372h-372v-373h-1490z" />
    <glyph glyph-name="Uring" unicode="&#x16e;" 
d="M744 0v372h-372v1117h-372v1489h372v373h372v-2607h373v-372h372v372h372v2234h373v373h372v-1862h-372v-1117h-373v-372h-1117zM1117 3723v745h744v-745h-744z" />
    <glyph glyph-name="uring" unicode="&#x16f;" 
d="M744 0v372h-372v1489h-372v373h372v372h745v-1862h372v-372h-372v-372h-373zM1861 0v744h-372v745h372v1117h745v-2234h-372v-372h-373zM1117 2978v745h744v-745h-744z" />
    <glyph glyph-name="Wcircumflex" unicode="&#x174;" 
d="M372 0v1861h-372v1117h372v373h372v-1862h373v1117h372v372h372v-1489h373v1862h372v-2607h-372v-372h-373v-372h-372v744h-372v-372h-373v-372h-372zM744 3723v373h373v-373h-373zM1489 3723v373h-372v372h744v-372h373v-373h-745z" />
    <glyph glyph-name="wcircumflex" unicode="&#x175;" 
d="M372 0v1489h-372v1117h372v-745h372v-372h373v1117h372v-1117h745v372h-373v373h373v372h372v-1862h-372v-372h-373v-372h-372v744h-372v-372h-373v-372h-372zM744 2978v373h373v-373h-373zM1489 2978v373h-372v372h744v-372h373v-373h-745z" />
    <glyph glyph-name="Ycircumflex" unicode="&#x176;" 
d="M1117 0v1861h-373v373h-372v372h-372v372h372v373h372v-373h373v-372h372v-372h372v372h373v-745h-373v-1489h-372v-372h-372zM2234 2606v745h372v-745h-372zM744 3723v373h373v-373h-373zM1489 3723v373h-372v372h744v-372h373v-373h-745z" />
    <glyph glyph-name="ycircumflex" unicode="&#x177;" 
d="M744 372v372h-372v1117h-372v373h372v372h372v-745h373v-1117h372v-372h-745zM1861 -744v1488h-372v373h372v372h373v1117h372v-2978h-372v-372h-373zM744 2978v373h373v-373h-373zM1489 2978v373h-372v372h744v-372h373v-373h-745z" />
    <glyph glyph-name="Ydieresis" unicode="&#x178;" 
d="M1117 0v1861h-373v373h-372v372h-372v372h372v373h372v-373h373v-372h372v-372h372v372h373v-745h-373v-1489h-372v-372h-372zM2234 2606v745h372v-745h-372zM744 3723v373h-372v372h745v-745h-373zM1861 3723v373h-372v372h745v-745h-373z" />
    <glyph glyph-name="Zacute" unicode="&#x179;" 
d="M372 0v372h-372v745h372v372h372v-745h1862v-372h-372v-372h-1862zM744 1489v372h373v-372h-373zM1117 1861v373h372v-373h-372zM1489 2234v372h372v-372h-372zM1861 2606v372h-1489v373h2234v-373h-372v-372h-373zM1117 3723v373h372v372h745v-372h-373v-373h-744z" />
    <glyph glyph-name="zacute" unicode="&#x17a;" 
d="M744 0v372h-372v745h372v372h373v372h372v373h-1117v372h2234v-372h-372v-373h-373v-372h-372v-745h-372v-372h1489v-372h-1862zM1117 2978v373h372v372h745v-372h-373v-373h-744z" />
    <glyph glyph-name="Zdotaccent" unicode="&#x17b;" 
d="M372 0v372h-372v745h372v372h372v-745h1862v-372h-372v-372h-1862zM744 1489v372h373v-372h-373zM1117 1861v373h372v-373h-372zM1489 2234v372h372v-372h-372zM1861 2606v372h-1489v373h2234v-373h-372v-372h-373zM1489 3723v373h-372v372h744v-745h-372z" />
    <glyph glyph-name="zdotaccent" unicode="&#x17c;" 
d="M744 0v372h-372v745h372v372h373v372h372v373h-1117v372h2234v-372h-372v-373h-373v-372h-372v-745h-372v-372h1489v-372h-1862zM1489 2978v373h-372v372h744v-745h-372z" />
    <glyph glyph-name="Zcaron" unicode="&#x17d;" 
d="M372 0v372h-372v745h372v372h372v-745h1862v-372h-372v-372h-1862zM744 1489v372h373v-372h-373zM1117 1861v373h372v-373h-372zM1489 2234v372h372v-372h-372zM1861 2606v372h-1489v373h2234v-373h-372v-372h-373zM1117 3723v373h-373v372h745v-372h372v-373h-744z
M1861 4096v372h373v-372h-373z" />
    <glyph glyph-name="zcaron" unicode="&#x17e;" 
d="M744 0v372h-372v745h372v372h373v372h372v373h-1117v372h2234v-372h-372v-373h-373v-372h-372v-745h-372v-372h1489v-372h-1862zM1117 2978v373h-373v372h745v-372h372v-373h-744zM1861 3351v372h373v-372h-373z" />
    <glyph glyph-name="longs" unicode="&#x17f;" 
d="M1117 -744v2978h-373v372h373v372h372v373h1117v-373h-745v-3350h-372v-372h-372z" />
    <glyph glyph-name="uni01CD" unicode="&#x1cd;" 
d="M0 0v744h372v745h372v-372h1117v372h-372v745h-372v-745h-373v1117h373v745h744v-1117h373v-1490h372v-744h-745v744h-1117v-372h-372v-372h-372zM1117 3723v373h-373v372h745v-372h372v-373h-744zM1861 4096v372h373v-372h-373z" />
    <glyph glyph-name="uni01CE" unicode="&#x1ce;" 
d="M372 0v372h-372v1117h372v-745h372v-372h745v-372h-1117zM1861 0v372h-372v1117h-1117v372h745v373h372v-373h372v-372h373v-745h372v-372h-372v-372h-373zM372 2234v372h745v-372h-745zM744 2978v373h-372v372h745v-372h372v-373h-745zM1489 3351v372h372v-372h-372z
" />
    <glyph glyph-name="uni01DD" unicode="&#x1dd;" 
d="M744 0v372h-372v372h372v373h745v-373h-372v-372h744v-372h-1117zM1861 372v1489h-372v373h-745v372h1117v-372h373v-373h372v-1117h-372v-372h-373z" />
    <glyph glyph-name="uni01E2" unicode="&#x1e2;" 
d="M0 0v1489h372v-372h745v1117h-373v-745h-372v1117h372v745h373v-373h372v373h1117v-373h372v-372h-744v372h-373v-372h-372v-372h1117v-373h-1117v-744h372v-373h745v-372h-372v-372h-745v372h-372v372h-745v-744h-372zM372 3723v373h372v372h1862v-372h-372v-373h-1862z
" />
    <glyph glyph-name="uni01E3" unicode="&#x1e3;" 
d="M372 0v372h-372v1117h372v-745h372v-372h373v-372h-745zM1489 0v372h-372v1117h-745v372h745v373h372v-1490h372v-372h745v-372h-1117zM372 2234v372h745v-372h-745zM1861 1489v372h373v373h-745v372h1117v-372h372v-373h-372v-372h-745zM372 2978v373h372v372h1862v-372
h-372v-373h-1862z" />
    <glyph glyph-name="Gcaron" unicode="&#x1e6;" 
d="M2234 744v373h-373v372h-372v372h372v373h373v-373h372v-1117h-372zM744 0v372h-372v372h-372v1862h372v-1117h372v-372h373v-373h1117v-372h-373v-372h-1117zM372 2606v372h372v-372h-372zM1861 2606v372h-1117v373h1490v-373h372v-372h-745zM1117 3723v373h-373v372
h745v-372h372v-373h-744zM1861 4096v372h373v-372h-373z" />
    <glyph glyph-name="gcaron" unicode="&#x1e7;" 
d="M372 -744v372h-372v372h744v-372h745v372h372v372h-744v372h-745v745h-372v372h372v373h372v-745h745v-745h745v-372h372v-372h-372v-372h-373v-372h-1489zM1489 1489v745h-745v372h1862v-372h-372v-373h-373v-372h-372zM1117 2978v373h-373v372h745v-372h372v-373h-744z
M1861 3351v372h373v-372h-373z" />
    <glyph glyph-name="uni01EA" unicode="&#x1ea;" 
d="M1117 -744v372h-373v744h-372v372h-372v1490h372v372h372v-1862h373v-372h744v-372h-372v-372h372v-372h-744zM1861 372v2234h-372v372h-745v373h1117v-373h373v-372h372v-1862h-372v-372h-373z" />
    <glyph glyph-name="uni01EB" unicode="&#x1eb;" 
d="M1117 -744v372h-373v744h-372v372h-372v1117h372v373h372v-1490h373v-372h744v-372h-372v-372h372v-372h-744zM1861 372v1489h-372v373h-372v372h1117v-372h372v-1490h-372v-372h-373z" />
    <glyph glyph-name="uni01F0" unicode="&#x1f0;" 
d="M1117 -744v3350h744v-2978h-372v-372h-372zM1117 2978v373h-373v372h745v-372h372v-373h-744zM1861 3351v372h373v-372h-373z" />
    <glyph glyph-name="uni01F4" unicode="&#x1f4;" 
d="M2234 744v373h-373v372h-372v372h372v373h373v-373h372v-1117h-372zM744 0v372h-372v372h-372v1862h372v-1117h372v-372h373v-373h1117v-372h-373v-372h-1117zM372 2606v372h372v-372h-372zM1861 2606v372h-1117v373h1490v-373h372v-372h-745zM744 3723v373h373v372h744
v-372h-372v-373h-745z" />
    <glyph glyph-name="uni01F5" unicode="&#x1f5;" 
d="M372 -744v372h-372v372h744v-372h745v372h372v372h-744v372h-745v745h-372v372h372v373h372v-745h745v-745h745v-372h372v-372h-372v-372h-373v-372h-1489zM1489 1489v745h-745v372h1862v-372h-372v-373h-373v-372h-372zM744 2978v373h373v372h744v-372h-372v-373h-745z
" />
    <glyph glyph-name="uni01F8" unicode="&#x1f8;" 
d="M372 0v2606h-372v372h372v373h745v-745h372v-372h372v1117h745v-2979h-372v-372h-373v1489h-372v372h-372v-1489h-373v-372h-372zM1117 3723v373h-373v372h745v-372h372v-373h-744z" />
    <glyph glyph-name="uni01F9" unicode="&#x1f9;" 
d="M372 0v1861h-372v373h372v372h372v-372h745v372h745v-372h372v-1862h-372v-372h-373v1861h-744v-372h-373v-1489h-372zM1117 2978v373h-373v372h745v-372h372v-373h-744z" />
    <glyph glyph-name="AEacute" unicode="&#x1fc;" 
d="M0 0v1489h372v-372h745v1117h-373v-745h-372v1117h372v745h373v-373h372v373h1117v-373h372v-372h-744v372h-373v-372h-372v-372h1117v-373h-1117v-744h372v-373h745v-372h-372v-372h-745v372h-372v372h-745v-744h-372zM1117 3723v373h372v372h745v-372h-373v-373h-744z
" />
    <glyph glyph-name="aeacute" unicode="&#x1fd;" 
d="M372 0v372h-372v1117h372v-745h372v-372h373v-372h-745zM1489 0v372h-372v1117h-745v372h745v373h372v-1490h372v-372h745v-372h-1117zM372 2234v372h745v-372h-745zM1861 1489v372h373v373h-745v372h1117v-372h372v-373h-372v-372h-745zM1117 2978v373h372v372h745v-372
h-373v-373h-744z" />
    <glyph glyph-name="uni021E" unicode="&#x21e;" 
d="M372 0v1861h-372v373h372v372h-372v372h372v373h745v-1117h744v372h-372v372h372v373h745v-2979h-372v-372h-373v1861h-744v-1489h-373v-372h-372zM1117 3723v373h-373v372h745v-372h372v-373h-744zM1861 4096v372h373v-372h-373z" />
    <glyph glyph-name="uni021F" unicode="&#x21f;" 
d="M1861 0v1861h-372v373h372v372h373v-372h372v-1862h-372v-372h-373zM372 0v2606h-372v372h372v373h745v-1490h372v-372h-372v-745h-373v-744h-372zM372 3723v373h-372v372h744v-372h373v-373h-745zM1117 4096v372h372v-372h-372z" />
    <glyph glyph-name="uni0226" unicode="&#x226;" 
d="M0 0v744h372v745h372v-372h1117v372h-372v745h-372v-745h-373v1117h373v745h744v-1117h373v-1490h372v-744h-745v744h-1117v-372h-372v-372h-372zM1489 3723v373h-372v372h744v-745h-372z" />
    <glyph glyph-name="uni0227" unicode="&#x227;" 
d="M372 0v372h-372v1117h372v-745h372v-372h745v-372h-1117zM1861 0v372h-372v1117h-1117v372h745v373h372v-373h372v-372h373v-745h372v-372h-372v-372h-373zM372 2234v372h745v-372h-745zM1117 2978v373h-373v372h745v-745h-372z" />
    <glyph glyph-name="uni0228" unicode="&#x228;" 
d="M744 -744v372h373v372h-373v372h-372v372h-372v1862h372v372h372v373h1490v-373h372v-372h-745v372h-744v-372h-373v-372h1490v-373h-1490v-744h373v-373h1117v-372h-373v-744h-372v-372h-745z" />
    <glyph glyph-name="uni0229" unicode="&#x229;" 
d="M1117 -744v372h372v372h-372v372h-373v372h-372v1117h372v373h373v-1490h372v-372h745v-744h-373v-372h-744zM1489 1489v372h372v373h-744v372h1117v-372h372v-373h-372v-372h-745z" />
    <glyph glyph-name="uni022E" unicode="&#x22e;" 
d="M744 0v372h-372v372h-372v1490h372v372h372v-1862h373v-372h744v-372h-1117zM1861 372v2234h-372v372h-745v373h1117v-373h373v-372h372v-1862h-372v-372h-373zM1117 3723v373h-373v372h745v-745h-372z" />
    <glyph glyph-name="uni022F" unicode="&#x22f;" 
d="M744 0v372h-372v372h-372v1117h372v373h372v-1490h373v-372h744v-372h-1117zM1861 372v1489h-372v373h-372v372h1117v-372h372v-1490h-372v-372h-373zM1117 2978v373h-373v372h745v-745h-372z" />
    <glyph glyph-name="uni0232" unicode="&#x232;" 
d="M1117 0v1861h-373v373h-372v372h-372v372h372v373h372v-373h373v-372h372v-372h372v372h373v-745h-373v-1489h-372v-372h-372zM2234 2606v745h372v-745h-372zM372 3723v373h372v372h1490v-372h-373v-373h-1489z" />
    <glyph glyph-name="uni0233" unicode="&#x233;" 
d="M744 372v372h-372v1117h-372v373h372v372h372v-745h373v-1117h372v-372h-745zM1861 -744v1488h-372v373h372v372h373v1117h372v-2978h-372v-372h-373zM372 2978v373h372v372h1490v-372h-373v-373h-1489z" />
    <glyph glyph-name="uni0237" unicode="&#x237;" 
d="M1117 -744v3350h744v-2978h-372v-372h-372z" />
    <glyph glyph-name="uni023D" unicode="&#x23d;" 
d="M744 0v1489h-744v372h372v373h372v372h-372v372h372v373h745v-1117h745v-373h-373v-372h-372v-1117h1117v-372h-1862z" />
    <glyph glyph-name="uni0241" unicode="&#x241;" 
d="M0 2606v372h372v-372h-372zM744 0v1489h373v372h372v745h-372v372h-745v373h1489v-373h373v-1117h-373v-372h-372v-1117h-372v-372h-373z" />
    <glyph glyph-name="uni0242" unicode="&#x242;" 
d="M0 1861v373h372v-373h-372zM744 0v1117h373v372h372v372h-372v373h-745v372h1489v-372h373v-745h-373v-372h-372v-745h-372v-372h-373z" />
    <glyph glyph-name="uni0245" unicode="&#x245;" 
d="M0 0v1117h372v744h372v1117h373v373h372v-745h372v-1117h373v-745h372v-372h-372v-372h-373v372h-372v1489h-372v-372h-373v-1489h-744z" />
    <glyph glyph-name="uni0248" unicode="&#x248;" 
d="M744 -372v372h373v1489h-745v372h372v373h373v372h-373v372h373v373h744v-1117h745v-373h-372v-372h-373v-1489h-372v-372h-745z" />
    <glyph glyph-name="uni0249" unicode="&#x249;" 
d="M1117 -744v1861h-745v372h372v372h373v745h744v-745h745v-372h-372v-372h-373v-1489h-372v-372h-372zM1117 2978v373h744v-373h-744z" />
    <glyph glyph-name="tilde" unicode="&#x2dc;" 
d="M372 1489v372h372v373h745v-373h-372v-372h-745zM1489 1489v372h372v373h745v-373h-372v-372h-745z" />
    <glyph glyph-name="uni03BC" unicode="&#x3bc;" 
d="M372 -744v2605h-372v373h372v372h745v-1862h372v-372h-372v-744h-373v-372h-372zM1861 0v744h-372v745h372v1117h745v-2234h-372v-372h-373z" />
    <glyph glyph-name="pi" unicode="&#x3c0;" 
d="M744 0v1861h-744v373h372v372h2606v-372h-372v-1862h372v-372h-744v372h-373v1489h-372v-1489h-372v-372h-373z" />
    <glyph glyph-name="uni0400" unicode="&#x400;" 
d="M744 0v372h-372v372h-372v1862h372v372h372v373h1490v-373h372v-372h-745v372h-744v-372h-373v-372h1490v-373h-1490v-744h373v-373h1117v-372h-373v-372h-1117zM1117 3723v373h-373v372h745v-372h372v-373h-744z" />
    <glyph glyph-name="uni0401" unicode="&#x401;" 
d="M744 0v372h-372v372h-372v1862h372v372h372v373h1490v-373h372v-372h-745v372h-744v-372h-373v-372h1490v-373h-1490v-744h373v-373h1117v-372h-373v-372h-1117zM744 3723v373h-372v372h745v-745h-373zM1861 3723v373h-372v372h745v-745h-373z" />
    <glyph glyph-name="uni0403" unicode="&#x403;" 
d="M372 0v3351h2234v-373h-1489v-2606h-373v-372h-372zM1117 3723v373h372v372h745v-372h-373v-373h-744z" />
    <glyph glyph-name="uni0404" unicode="&#x404;" 
d="M2234 372v372h372v-372h-372zM2234 2606v372h372v-372h-372zM744 0v372h-372v2606h372v373h1490v-373h-745v-372h-372v-372h372v-373h745v-372h-745v-372h-372v-373h372v-372h745v-372h-1490z" />
    <glyph glyph-name="uni0405" unicode="&#x405;" 
d="M372 0v372h-372v372h372v373h372v-745h745v-372h-1117zM1489 372v372h372v745h-372v372h-1117v373h-372v372h372v372h372v-372h373v-372h1117v-373h372v-1117h-372v-372h-745zM1861 2606v372h-1117v373h1490v-373h372v-372h-745z" />
    <glyph glyph-name="uni0406" unicode="&#x406;" 
d="M744 0v372h373v2606h-373v373h1490v-373h-373v-2606h373v-372h-1490z" />
    <glyph glyph-name="uni0407" unicode="&#x407;" 
d="M744 0v372h373v2606h-373v373h1490v-373h-373v-2606h373v-372h-1490zM744 3723v373h-372v372h745v-745h-373zM1861 3723v373h-372v372h745v-745h-373z" />
    <glyph glyph-name="uni0408" unicode="&#x408;" 
d="M744 -372v372h373v2606h-373v372h373v373h744v-3351h-372v-372h-745z" />
    <glyph glyph-name="uni040A" unicode="&#x40a;" 
d="M372 0v372h-372v2979h744v-1490h373v1117h372v373h372v-1117h745v-373h372v-1117h-372v-372h-372v1489h-373v-1489h373v-372h-1117v1117h-373v-1117h-372z" />
    <glyph glyph-name="uni040C" unicode="&#x40c;" 
d="M1489 1861v373h372v-373h-372zM372 0v2606h-372v372h372v373h745v-1490h372v-372h372v-745h373v373h372v-745h-372v-372h-373v372h-372v372h-372v-372h-373v-372h-372zM1861 2234v744h-372v373h1117v-745h-372v-372h-373zM1117 3723v373h372v372h745v-372h-373v-373h-744
z" />
    <glyph glyph-name="uni040D" unicode="&#x40d;" 
d="M372 0v372h-372v2979h744v-1117h373v372h372v372h372v373h373v-373h372v-372h-372v-2606h-373v372h-372v1489h-372v-372h-373v-1489h-372zM1117 3723v373h-373v372h745v-372h372v-373h-744z" />
    <glyph glyph-name="uni040E" unicode="&#x40e;" 
d="M1117 0v1861h-373v373h-372v372h-372v372h372v373h372v-373h373v-372h372v-372h372v372h373v-745h-373v-1489h-372v-372h-372zM2234 2606v745h372v-745h-372zM1117 3723v373h744v-373h-744zM744 4096v372h373v-372h-373zM1861 4096v372h373v-372h-373z" />
    <glyph glyph-name="uni040F" unicode="&#x40f;" 
d="M1117 0v744h-1117v2607h744v-2234h1117v2234h745v-2607h-1117v-744h-372z" />
    <glyph glyph-name="uni0410" unicode="&#x410;" 
d="M0 0v744h372v745h372v-372h1117v372h-372v745h-372v-745h-373v1117h373v745h744v-1117h373v-1490h372v-744h-745v744h-1117v-372h-372v-372h-372z" />
    <glyph glyph-name="uni0411" unicode="&#x411;" 
d="M372 0v2606h-372v372h744v373h1490v-373h-1117v-744h1117v-373h372v-1117h-372v-372h-373v1489h-744v-1489h744v-372h-1489z" />
    <glyph glyph-name="uni0412" unicode="&#x412;" 
d="M372 0v2606h-372v372h372v373h1489v-373h373v-372h372v-745h-372v-372h372v-745h-372v-372h-373v1117h-372v372h372v745h-372v372h-372v-2606h744v-372h-1489z" />
    <glyph glyph-name="uni0413" unicode="&#x413;" 
d="M372 0v3351h2234v-373h-1489v-2606h-373v-372h-372z" />
    <glyph glyph-name="uni0414" unicode="&#x414;" 
d="M0 0v744h372v1862h372v372h373v-2234h372v2234h-372v373h1117v-2607h372v-744h-745v372h-1117v-372h-744z" />
    <glyph glyph-name="uni0415" unicode="&#x415;" 
d="M744 0v372h-372v372h-372v1862h372v372h372v373h1490v-373h372v-372h-745v372h-744v-372h-373v-372h1490v-373h-1490v-744h373v-373h1117v-372h-373v-372h-1117z" />
    <glyph glyph-name="uni0416" unicode="&#x416;" 
d="M0 0v1489h372v372h-372v1117h372v373h372v-1490h373v1490h372v-1490h372v1117h373v373h372v-1490h-372v-372h372v-1117h-372v-372h-373v1489h-372v-1489h-372v1489h-373v-1117h-372v-372h-372z" />
    <glyph glyph-name="uni0417" unicode="&#x417;" 
d="M372 372v372h372v-372h-372zM372 2606v372h372v-372h-372zM744 0v372h745v372h372v745h-744v372h372v373h372v372h-372v372h-745v373h1490v-373h372v-744h-372v-373h372v-1489h-372v-372h-1490z" />
    <glyph glyph-name="uni0418" unicode="&#x418;" 
d="M372 0v372h-372v2979h744v-1117h373v372h372v372h372v373h373v-373h372v-372h-372v-2606h-373v372h-372v1489h-372v-372h-373v-1489h-372z" />
    <glyph glyph-name="uni0419" unicode="&#x419;" 
d="M372 0v372h-372v2979h744v-1117h373v372h372v372h372v373h373v-373h372v-372h-372v-2606h-373v372h-372v1489h-372v-372h-373v-1489h-372zM744 3723v373h745v-373h-745zM372 4096v372h372v-372h-372zM1489 4096v372h372v-372h-372z" />
    <glyph glyph-name="uni041A" unicode="&#x41a;" 
d="M1489 1861v373h372v-373h-372zM372 0v2606h-372v372h372v373h745v-1490h372v-372h372v-745h373v373h372v-745h-372v-372h-373v372h-372v372h-372v-372h-373v-372h-372zM1861 2234v744h-372v373h1117v-745h-372v-372h-373z" />
    <glyph glyph-name="uni041B" unicode="&#x41b;" 
d="M0 0v1489h372v1117h372v745h373v-373h372v-1117h372v-744h373v-1117h-745v1489h-372v372h-373v-1489h-372v-372h-372z" />
    <glyph glyph-name="uni041C" unicode="&#x41c;" 
d="M0 0v744h372v1490h-372v744h372v373h372v-745h373v-745h372v373h372v372h373v745h372v-3351h-372v372h-373v1117h-372v-745h-372v745h-373v-1489h-744z" />
    <glyph glyph-name="uni041D" unicode="&#x41d;" 
d="M372 0v1861h-372v373h372v372h-372v372h372v373h745v-1117h744v372h-372v372h372v373h745v-2979h-372v-372h-373v1861h-744v-1489h-373v-372h-372z" />
    <glyph glyph-name="uni041E" unicode="&#x41e;" 
d="M744 0v372h-372v372h-372v1490h372v372h372v-1862h373v-372h744v-372h-1117zM1861 372v2234h-372v372h-745v373h1117v-373h373v-372h372v-1862h-372v-372h-373z" />
    <glyph glyph-name="uni041F" unicode="&#x41f;" 
d="M372 0v3351h2234v-3351h-745v2978h-744v-2978h-745z" />
    <glyph glyph-name="uni0420" unicode="&#x420;" 
d="M1489 1489v372h372v-372h-372zM372 0v2606h-372v372h372v373h1862v-373h372v-744h-372v-373h-373v1117h-744v-2606h-373v-372h-372z" />
    <glyph glyph-name="uni0421" unicode="&#x421;" 
d="M744 0v372h-372v372h-372v1862h372v-1117h372v-372h373v-373h1117v-372h-373v-372h-1117zM372 2606v372h372v-372h-372zM1861 2234v372h-372v372h-745v373h1117v-373h745v-372h-372v-372h-373z" />
    <glyph glyph-name="uni0422" unicode="&#x422;" 
d="M1117 0v2978h-745v373h2234v-373h-745v-2606h-372v-372h-372z" />
    <glyph glyph-name="uni0423" unicode="&#x423;" 
d="M1117 0v1861h-373v373h-372v372h-372v372h372v373h372v-373h373v-372h372v-372h372v372h373v-745h-373v-1489h-372v-372h-372zM2234 2606v745h372v-745h-372z" />
    <glyph glyph-name="uni0424" unicode="&#x424;" 
d="M1861 744v1862h-372v-1862h372zM372 744v373h-372v1489h372v372h372v-2234h-372zM1117 0v372h-373v372h373v2234h-373v373h1117v-373h373v-372h372v-1862h-372v-372h-745v-372h-372z" />
    <glyph glyph-name="uni0425" unicode="&#x425;" 
d="M0 0v744h372v373h372v-745h-372v-372h-372zM1489 2234v372h372v-372h-372zM1861 0v372h-372v372h-372v373h-373v744h-372v373h-372v744h372v373h372v-745h373v-372h372v-745h372v-372h373v-373h372v-372h-372v-372h-373zM1861 2606v745h745v-373h-372v-372h-373z" />
    <glyph glyph-name="uni0426" unicode="&#x426;" 
d="M1861 0v744h-1861v2607h744v-2234h745v2234h745v-2234h372v-1117h-745z" />
    <glyph glyph-name="uni0427" unicode="&#x427;" 
d="M1489 0v744h-1117v373h-372v2234h744v-1862h745v1862h745v-3351h-745z" />
    <glyph glyph-name="uni0428" unicode="&#x428;" 
d="M0 0v3351h744v-2979h373v2979h372v-2979h372v2979h745v-3351h-2606z" />
    <glyph glyph-name="uni0429" unicode="&#x429;" 
d="M2234 0v744h-2234v2607h744v-2234h373v2234h372v-2234h372v2234h745v-2234h372v-1117h-744z" />
    <glyph glyph-name="uni042A" unicode="&#x42a;" 
d="M744 0v2606h-744v372h372v373h745v-373h372v-744h745v-373h372v-1117h-372v-372h-373v1489h-372v-1489h372v-372h-1117z" />
    <glyph glyph-name="uni042B" unicode="&#x42b;" 
d="M0 0v2978h372v373h372v-1117h745v-373h-745v-1489h745v-372h-1489zM1861 0v372h-372v1489h372v1490h745v-3351h-745z" />
    <glyph glyph-name="uni042C" unicode="&#x42c;" 
d="M372 0v2978h372v373h373v-1117h1117v-373h372v-1117h-372v-372h-373v1489h-744v-1489h744v-372h-1489z" />
    <glyph glyph-name="uni042D" unicode="&#x42d;" 
d="M372 372v372h372v-372h-372zM372 2606v372h372v-372h-372zM744 0v372h745v372h372v373h-372v372h-745v372h745v373h372v372h-372v372h-745v373h1490v-373h372v-2606h-372v-372h-1490z" />
    <glyph glyph-name="uni042E" unicode="&#x42e;" 
d="M1489 0v372h372v-372h-372zM1861 372v2606h373v-372h372v-1862h-372v-372h-373zM0 0v3351h744v-1490h373v1117h372v-2606h-372v745h-373v-1117h-744zM1489 2978v373h372v-373h-372z" />
    <glyph glyph-name="uni042F" unicode="&#x42f;" 
d="M0 0v744h372v745h372v372h373v-1117h-373v-744h-744zM1861 0v372h-372v2606h-745v-1117h-372v373h-372v744h372v373h1862v-373h372v-372h-372v-2606h-373z" />
    <glyph glyph-name="uni1E20" unicode="&#x1e20;" 
d="M2234 744v373h-373v372h-372v372h372v373h373v-373h372v-1117h-372zM744 0v372h-372v372h-372v1862h372v-1117h372v-372h373v-373h1117v-372h-373v-372h-1117zM372 2606v372h372v-372h-372zM1861 2606v372h-1117v373h1490v-373h372v-372h-745zM372 3723v373h372v372h1490
v-372h-373v-373h-1489z" />
    <glyph glyph-name="uni1E21" unicode="&#x1e21;" 
d="M372 -744v372h-372v372h744v-372h745v372h372v372h-744v372h-745v745h-372v372h372v373h372v-745h745v-745h745v-372h372v-372h-372v-372h-373v-372h-1489zM1489 1489v745h-745v372h1862v-372h-372v-373h-373v-372h-372zM372 2978v373h372v372h1490v-372h-373v-373h-1489
z" />
    <glyph glyph-name="uni1E22" unicode="&#x1e22;" 
d="M372 0v1861h-372v373h372v372h-372v372h372v373h745v-1117h744v372h-372v372h372v373h745v-2979h-372v-372h-373v1861h-744v-1489h-373v-372h-372zM1489 3723v373h-372v372h744v-745h-372z" />
    <glyph glyph-name="uni1E23" unicode="&#x1e23;" 
d="M1861 0v1861h-372v373h372v372h373v-372h372v-1862h-372v-372h-373zM372 0v2606h-372v372h372v373h745v-1490h372v-372h-372v-745h-373v-744h-372zM1489 3723v373h-372v372h744v-745h-372z" />
    <glyph glyph-name="uni1E26" unicode="&#x1e26;" 
d="M372 0v1861h-372v373h372v372h-372v372h372v373h745v-1117h744v372h-372v372h372v373h745v-2979h-372v-372h-373v1861h-744v-1489h-373v-372h-372zM744 3723v373h-372v372h745v-745h-373zM1861 3723v373h-372v372h745v-745h-373z" />
    <glyph glyph-name="uni1E27" unicode="&#x1e27;" 
d="M1861 0v1861h-372v373h372v372h373v-372h372v-1862h-372v-372h-373zM372 0v2606h-372v372h372v373h745v-1490h372v-372h-372v-745h-373v-744h-372zM744 3723v373h-372v372h745v-745h-373zM1861 3723v373h-372v372h745v-745h-373z" />
    <glyph glyph-name="uni1E44" unicode="&#x1e44;" 
d="M372 0v2606h-372v372h372v373h745v-745h372v-372h372v1117h745v-2979h-372v-372h-373v1489h-372v372h-372v-1489h-373v-372h-372zM1489 3723v373h-372v372h744v-745h-372z" />
    <glyph glyph-name="uni1E45" unicode="&#x1e45;" 
d="M372 0v1861h-372v373h372v372h372v-372h745v372h745v-372h372v-1862h-372v-372h-373v1861h-744v-372h-373v-1489h-372zM1117 2978v373h-373v372h745v-745h-372z" />
    <glyph glyph-name="uni1E58" unicode="&#x1e58;" 
d="M1861 0v744h-372v1117h372v-372h373v-745h372v-744h-745zM372 0v2606h-372v372h372v373h1862v-373h372v-744h-372v-373h-373v1117h-744v-2606h-373v-372h-372zM1117 3723v373h-373v372h745v-745h-372z" />
    <glyph glyph-name="uni1E59" unicode="&#x1e59;" 
d="M372 0v1861h-372v373h372v372h745v-372h372v-373h-372v-1489h-373v-372h-372zM1861 1489v745h-372v372h745v-372h372v-373h-372v-372h-373zM1117 2978v373h-373v372h745v-745h-372z" />
    <glyph glyph-name="uni1E60" unicode="&#x1e60;" 
d="M372 0v372h-372v372h372v373h372v-745h745v-372h-1117zM1489 372v372h372v745h-372v372h-1117v373h-372v372h372v372h372v-372h373v-372h1117v-373h372v-1117h-372v-372h-745zM1861 2606v372h-1117v373h1490v-373h372v-372h-745zM1489 3723v373h-372v372h744v-745h-372z
" />
    <glyph glyph-name="uni1E61" unicode="&#x1e61;" 
d="M744 0v372h-372v372h745v-372h744v-372h-1117zM1861 372v745h-372v372h-745v372h-372v373h372v372h1862v-372h-1117v-373h745v-372h372v-745h-372v-372h-373zM1489 2978v373h-372v372h744v-745h-372z" />
    <glyph glyph-name="uni1E7C" unicode="&#x1e7c;" 
d="M1117 0v744h-373v1117h-372v745h-372v372h372v373h372v-373h373v-1489h372v372h372v1490h745v-1117h-372v-745h-373v-1117h-372v-372h-372zM372 3723v373h372v372h745v-372h-372v-373h-745zM1489 3723v373h372v372h745v-372h-372v-373h-745z" />
    <glyph glyph-name="uni1E7D" unicode="&#x1e7d;" 
d="M1117 0v372h-373v1117h-372v372h-372v373h372v372h372v-372h373v-745h372v-745h372v-372h-372v-372h-372zM1861 744v1117h-372v373h372v372h373v-372h372v-745h-372v-745h-373zM372 2978v373h372v372h745v-372h-372v-373h-745zM1489 2978v373h372v372h745v-372h-372v-373
h-745z" />
    <glyph glyph-name="Wgrave" unicode="&#x1e80;" 
d="M372 0v1861h-372v1117h372v373h372v-1862h373v1117h372v372h372v-1489h373v1862h372v-2607h-372v-372h-373v-372h-372v744h-372v-372h-373v-372h-372zM1117 3723v373h-373v372h745v-372h372v-373h-744z" />
    <glyph glyph-name="wgrave" unicode="&#x1e81;" 
d="M372 0v1489h-372v1117h372v-745h372v-372h373v1117h372v-1117h745v372h-373v373h373v372h372v-1862h-372v-372h-373v-372h-372v744h-372v-372h-373v-372h-372zM1117 2978v373h-373v372h745v-372h372v-373h-744z" />
    <glyph glyph-name="Wacute" unicode="&#x1e82;" 
d="M372 0v1861h-372v1117h372v373h372v-1862h373v1117h372v372h372v-1489h373v1862h372v-2607h-372v-372h-373v-372h-372v744h-372v-372h-373v-372h-372zM1117 3723v373h372v372h745v-372h-373v-373h-744z" />
    <glyph glyph-name="wacute" unicode="&#x1e83;" 
d="M372 0v1489h-372v1117h372v-745h372v-372h373v1117h372v-1117h745v372h-373v373h373v372h372v-1862h-372v-372h-373v-372h-372v744h-372v-372h-373v-372h-372zM1117 2978v373h372v372h745v-372h-373v-373h-744z" />
    <glyph glyph-name="Wdieresis" unicode="&#x1e84;" 
d="M372 0v1861h-372v1117h372v373h372v-1862h373v1117h372v372h372v-1489h373v1862h372v-2607h-372v-372h-373v-372h-372v744h-372v-372h-373v-372h-372zM744 3723v373h-372v372h745v-745h-373zM1861 3723v373h-372v372h745v-745h-373z" />
    <glyph glyph-name="wdieresis" unicode="&#x1e85;" 
d="M372 0v1489h-372v1117h372v-745h372v-372h373v1117h372v-1117h745v372h-373v373h373v372h372v-1862h-372v-372h-373v-372h-372v744h-372v-372h-373v-372h-372zM744 2978v373h-372v372h745v-745h-373zM1861 2978v373h-372v372h745v-745h-373z" />
    <glyph glyph-name="uni1E86" unicode="&#x1e86;" 
d="M372 0v1861h-372v1117h372v373h372v-1862h373v1117h372v372h372v-1489h373v1862h372v-2607h-372v-372h-373v-372h-372v744h-372v-372h-373v-372h-372zM1489 3723v373h-372v372h744v-745h-372z" />
    <glyph glyph-name="uni1E87" unicode="&#x1e87;" 
d="M372 0v1489h-372v1117h372v-745h372v-372h373v1117h372v-1117h745v372h-373v373h373v372h372v-1862h-372v-372h-373v-372h-372v744h-372v-372h-373v-372h-372zM1117 2978v373h-373v372h745v-745h-372z" />
    <glyph glyph-name="uni1E8A" unicode="&#x1e8a;" 
d="M0 0v744h372v373h372v-745h-372v-372h-372zM1489 2234v372h372v-372h-372zM1861 0v372h-372v372h-372v373h-373v744h-372v373h-372v744h372v373h372v-745h373v-372h372v-745h372v-372h373v-373h372v-372h-372v-372h-373zM1861 2606v745h745v-373h-372v-372h-373z
M1117 3723v373h-373v372h745v-745h-372z" />
    <glyph glyph-name="uni1E8B" unicode="&#x1e8b;" 
d="M372 0v744h372v-372h373v-372h-745zM1861 0v372h-372v372h-745v1117h-744v373h372v372h372v-372h373v-373h744v-1117h373v-372h372v-372h-745zM1861 1861v373h-372v372h1117v-372h-372v-373h-373zM1117 2978v373h-373v372h745v-745h-372z" />
    <glyph glyph-name="uni1E8C" unicode="&#x1e8c;" 
d="M0 0v744h372v373h372v-745h-372v-372h-372zM1489 2234v372h372v-372h-372zM1861 0v372h-372v372h-372v373h-373v744h-372v373h-372v744h372v373h372v-745h373v-372h372v-745h372v-372h373v-373h372v-372h-372v-372h-373zM1861 2606v745h745v-373h-372v-372h-373z
M744 3723v373h-372v372h745v-745h-373zM1861 3723v373h-372v372h745v-745h-373z" />
    <glyph glyph-name="uni1E8D" unicode="&#x1e8d;" 
d="M372 0v744h372v-372h373v-372h-745zM1861 0v372h-372v372h-745v1117h-744v373h372v372h372v-372h373v-373h744v-1117h373v-372h372v-372h-745zM1861 1861v373h-372v372h1117v-372h-372v-373h-373zM744 2978v373h-372v372h745v-745h-373zM1861 2978v373h-372v372h745v-745
h-373z" />
    <glyph glyph-name="uni1E8E" unicode="&#x1e8e;" 
d="M1117 0v1861h-373v373h-372v372h-372v372h372v373h372v-373h373v-372h372v-372h372v372h373v-745h-373v-1489h-372v-372h-372zM2234 2606v745h372v-745h-372zM1489 3723v373h-372v372h744v-745h-372z" />
    <glyph glyph-name="uni1E8F" unicode="&#x1e8f;" 
d="M744 372v372h-372v1117h-372v373h372v372h372v-745h373v-1117h372v-372h-745zM1861 -744v1488h-372v373h372v372h373v1117h372v-2978h-372v-372h-373zM1489 2978v373h-372v372h744v-745h-372z" />
    <glyph glyph-name="uni1E90" unicode="&#x1e90;" 
d="M372 0v372h-372v745h372v372h372v-745h1862v-372h-372v-372h-1862zM744 1489v372h373v-372h-373zM1117 1861v373h372v-373h-372zM1489 2234v372h372v-372h-372zM1861 2606v372h-1489v373h2234v-373h-372v-372h-373zM744 3723v373h373v-373h-373zM1489 3723v373h-372v372
h744v-372h373v-373h-745z" />
    <glyph glyph-name="uni1E91" unicode="&#x1e91;" 
d="M744 0v372h-372v745h372v372h373v372h372v373h-1117v372h2234v-372h-372v-373h-373v-372h-372v-745h-372v-372h1489v-372h-1862zM744 2978v373h373v-373h-373zM1489 2978v373h-372v372h744v-372h373v-373h-745z" />
    <glyph glyph-name="uni1E97" unicode="&#x1e97;" 
d="M1117 0v2234h-373v372h373v745h744v-745h373v-372h-373v-1490h373v-372h-373v-372h-744zM744 3723v373h-372v372h745v-745h-373zM1861 3723v373h-372v372h745v-745h-373z" />
    <glyph glyph-name="uni1E98" unicode="&#x1e98;" 
d="M372 0v1489h-372v1117h372v-745h372v-372h373v1117h372v-1117h745v372h-373v373h373v372h372v-1862h-372v-372h-373v-372h-372v744h-372v-372h-373v-372h-372zM1117 2978v745h744v-745h-744z" />
    <glyph glyph-name="uni1E99" unicode="&#x1e99;" 
d="M744 372v372h-372v1117h-372v373h372v372h372v-745h373v-1117h372v-372h-745zM1861 -744v1488h-372v373h372v372h373v1117h372v-2978h-372v-372h-373zM1117 2978v745h744v-745h-744z" />
    <glyph glyph-name="uni1EBC" unicode="&#x1ebc;" 
d="M744 0v372h-372v372h-372v1862h372v372h372v373h1490v-373h372v-372h-745v372h-744v-372h-373v-372h1490v-373h-1490v-744h373v-373h1117v-372h-373v-372h-1117zM372 3723v373h372v372h745v-372h-372v-373h-745zM1489 3723v373h372v372h745v-372h-372v-373h-745z" />
    <glyph glyph-name="uni1EBD" unicode="&#x1ebd;" 
d="M1117 0v372h-373v372h-372v1117h372v373h373v-1490h372v-372h745v-372h-1117zM1489 1489v372h372v373h-744v372h1117v-372h372v-373h-372v-372h-745zM372 2978v373h372v372h745v-372h-372v-373h-745zM1489 2978v373h372v372h745v-372h-372v-373h-745z" />
    <glyph glyph-name="Ygrave" unicode="&#x1ef2;" 
d="M1117 0v1861h-373v373h-372v372h-372v372h372v373h372v-373h373v-372h372v-372h372v372h373v-745h-373v-1489h-372v-372h-372zM2234 2606v745h372v-745h-372zM1117 3723v373h-373v372h745v-372h372v-373h-744z" />
    <glyph glyph-name="ygrave" unicode="&#x1ef3;" 
d="M744 372v372h-372v1117h-372v373h372v372h372v-745h373v-1117h372v-372h-745zM1861 -744v1488h-372v373h372v372h373v1117h372v-2978h-372v-372h-373zM1117 2978v373h-373v372h745v-372h372v-373h-744z" />
    <glyph glyph-name="uni1EF8" unicode="&#x1ef8;" 
d="M1117 0v1861h-373v373h-372v372h-372v372h372v373h372v-373h373v-372h372v-372h372v372h373v-745h-373v-1489h-372v-372h-372zM2234 2606v745h372v-745h-372zM372 3723v373h372v372h745v-372h-372v-373h-745zM1489 3723v373h372v372h745v-372h-372v-373h-745z" />
    <glyph glyph-name="uni1EF9" unicode="&#x1ef9;" 
d="M744 372v372h-372v1117h-372v373h372v372h372v-745h373v-1117h372v-372h-745zM1861 -744v1488h-372v373h372v372h373v1117h372v-2978h-372v-372h-373zM372 2978v373h372v372h745v-372h-372v-373h-745zM1489 2978v373h372v372h745v-372h-372v-373h-745z" />
    <glyph glyph-name="uni2010" unicode="&#x2010;" 
d="M0 1489v372h372v373h1862v-373h-373v-372h-1861z" />
    <glyph glyph-name="uni2011" unicode="&#x2011;" 
d="M0 1489v372h372v373h1862v-373h-373v-372h-1861z" />
    <glyph glyph-name="figuredash" unicode="&#x2012;" 
d="M0 1489v372h372v373h2234v-373h-372v-372h-2234z" />
    <glyph glyph-name="endash" unicode="&#x2013;" 
d="M0 1489v372h372v373h2234v-373h-372v-372h-2234z" />
    <glyph glyph-name="emdash" unicode="&#x2014;" 
d="M0 1489v372h372v373h2606v-373h-372v-372h-2606z" />
    <glyph glyph-name="uni2015" unicode="&#x2015;" 
d="M0 1489v372h372v373h2606v-373h-372v-372h-2606z" />
    <glyph glyph-name="quoteleft" unicode="&#x2018;" 
d="M1489 2234v372h-372v372h372v373h372v-745h373v-372h-745z" />
    <glyph glyph-name="quoteright" unicode="&#x2019;" 
d="M1489 2234v744h-372v373h744v-373h373v-372h-373v-372h-372z" />
    <glyph glyph-name="quotesinglbase" unicode="&#x201a;" 
d="M1489 0v744h-372v373h744v-373h373v-372h-373v-372h-372z" />
    <glyph glyph-name="quotereversed" unicode="&#x201b;" 
d="M1489 2234v372h-372v372h372v373h745v-373h-373v-744h-372z" />
    <glyph glyph-name="quotedblleft" unicode="&#x201c;" 
d="M744 2234v372h-372v372h372v373h373v-745h372v-372h-745zM1861 2234v372h-372v372h372v373h373v-745h372v-372h-745z" />
    <glyph glyph-name="quotedblright" unicode="&#x201d;" 
d="M744 2234v744h-372v373h745v-373h372v-372h-372v-372h-373zM1861 2234v744h-372v373h745v-373h372v-372h-372v-372h-373z" />
    <glyph glyph-name="quotedblbase" unicode="&#x201e;" 
d="M744 0v744h-372v373h745v-373h372v-372h-372v-372h-373zM1861 0v744h-372v373h745v-373h372v-372h-372v-372h-373z" />
    <glyph glyph-name="uni201F" unicode="&#x201f;" 
d="M744 2234v372h-372v372h372v373h745v-373h-372v-744h-373zM1861 2234v372h-372v372h372v373h745v-373h-372v-744h-373z" />
    <glyph glyph-name="dagger" unicode="&#x2020;" 
d="M1117 -744v2233h-1117v372h372v373h745v1117h744v-1117h1117v-373h-372v-372h-745v-1861h-372v-372h-372z" />
    <glyph glyph-name="daggerdbl" unicode="&#x2021;" 
d="M1117 -744v1116h-1117v372h372v373h745v744h-1117v373h372v372h745v745h744v-745h1117v-372h-372v-373h-745v-744h1117v-373h-372v-372h-745v-744h-372v-372h-372z" />
    <glyph glyph-name="bullet" unicode="&#x2022;" 
d="M1117 1489v745h372v-373h372v-372h-744z" />
    <glyph glyph-name="ellipsis" unicode="&#x2026;" 
d="M0 0v744h372v-372h372v-372h-744zM1117 0v744h372v-372h372v-372h-744zM2234 0v744h372v-372h372v-372h-744z" />
    <glyph glyph-name="uni2027" unicode="&#x2027;" 
d="M1117 1489v745h372v-373h372v-372h-744z" />
    <glyph glyph-name="uni2038" unicode="&#x2038;" 
d="M372 0v372h372v-372h-372zM744 372v372h373v-372h-373zM1861 0v372h-372v372h-372v373h744v-373h373v-372h372v-372h-745z" />
    <glyph glyph-name="guilsinglleft" unicode="&#x2039;" 
d="M1489 0v744h-372v373h-745v372h-372v372h744v373h373v-745h372v-372h372v-373h373v-372h372v-372h-1117zM1117 2234v372h372v-372h-372zM1489 2606v372h372v-372h-372zM1861 2978v373h373v-373h-373z" />
    <glyph glyph-name="guilsinglright" unicode="&#x203a;" 
d="M372 0v372h372v-372h-372zM744 372v372h373v-372h-373zM1117 744v373h372v-373h-372zM1489 1117v744h-372v373h-373v372h-372v372h-372v373h1117v-745h372v-372h745v-373h372v-372h-745v-372h-372z" />
    <glyph glyph-name="uni203E" unicode="&#x203e;" 
d="M0 2606v372h372v373h1862v-373h-373v-372h-1861z" />
    <glyph glyph-name="uni2043" unicode="&#x2043;" 
d="M1117 1489v745h372v-373h372v-372h-744z" />
    <glyph glyph-name="fraction" unicode="&#x2044;" 
d="M0 -372v372h372v372h372v372h373v745h372v745h372v1117h1117v-373h-372v-372h-372v-745h-373v-744h-372v-745h-372v-744h-1117z" />
    <glyph glyph-name="uni204F" unicode="&#x204f;" 
d="M1117 0v372h-373v372h373v373h744v-373h-372v-744h-372zM744 1861v373h373v372h372v-745h-745z" />
    <glyph glyph-name="uni2070" unicode="&#x2070;" 
d="M1861 1489v372h373v-372h-373zM1117 2234v372h372v-372h-372zM1489 2606v372h372v-372h-372zM744 1117v372h-372v1862h372v-1117h373v-745h744v-372h-1117zM744 3351v372h373v-372h-373zM2234 1861v1117h-373v745h-744v373h1117v-373h372v-1862h-372z" />
    <glyph glyph-name="uni2071" unicode="&#x2071;" 
d="M372 1861v373h372v-373h-372zM1861 1861v373h373v-373h-373zM372 2606v372h372v-372h-372zM1861 2606v372h373v-372h-373zM1117 1489v745h-373v372h373v745h372v-745h372v-372h-372v-745h-372z" />
    <glyph glyph-name="uni2074" unicode="&#x2074;" 
d="M1117 1117v372h744v372h-1489v373h372v744h373v-744h744v1489h-372v-745h-372v745h-373v373h1490v-1862h372v-373h-372v-372h372v-372h-1489z" />
    <glyph glyph-name="uni2075" unicode="&#x2075;" 
d="M372 1489v745h745v-373h-373v-372h-372zM744 1117v372h745v372h372v1117h373v-372h372v-745h-372v-372h-373v-372h-1117zM372 2606v1490h2234v-373h-1862v-372h1117v-373h-1117v-372h-372z" />
    <glyph glyph-name="uni2076" unicode="&#x2076;" 
d="M1861 1489v372h373v-372h-373zM744 1117v372h-372v1862h372v372h373v-372h1117v-373h372v-1117h-372v745h-373v372h-744v-372h-373v-745h373v-372h744v-372h-1117zM1117 3723v373h372v-373h-372zM1489 4096v372h745v-372h-745z" />
    <glyph glyph-name="uni2077" unicode="&#x2077;" 
d="M1489 744v373h-372v1117h372v744h372v-2234h-372zM372 2978v1118h372v-373h1490v373h372v-745h-372v-373h-373v373h-1117v-373h-372z" />
    <glyph glyph-name="uni2078" unicode="&#x2078;" 
d="M744 1117v372h-372v1117h372v-745h373v-372h744v372h373v745h372v-1117h-372v-372h-1490zM744 2606v372h373v-372h-373zM1861 2606v372h373v-372h-373zM744 3351v745h373v-745h-373zM1117 2978v373h372v372h372v373h373v-745h-373v-373h-744zM1117 4096v372h744v-372
h-744z" />
    <glyph glyph-name="uni2079" unicode="&#x2079;" 
d="M744 744v373h745v-373h-745zM1489 1117v372h372v-372h-372zM744 3351v372h373v-372h-373zM1861 1489v372h-1117v373h-372v1117h372v-745h373v-372h744v372h373v745h-373v372h-744v373h1117v-373h372v-1862h-372v-372h-373z" />
    <glyph glyph-name="uni207A" unicode="&#x207a;" 
d="M1117 1489v745h-745v372h745v745h372v-745h745v-372h-745v-745h-372z" />
    <glyph glyph-name="uni207B" unicode="&#x207b;" 
d="M372 2234v372h1862v-372h-1862z" />
    <glyph glyph-name="uni207C" unicode="&#x207c;" 
d="M744 2234v372h1862v-372h-1862zM744 2978v373h1862v-373h-1862z" />
    <glyph glyph-name="uni207D" unicode="&#x207d;" 
d="M1861 1117v372h373v-372h-373zM1489 1489v372h372v-372h-372zM1117 1861v1490h372v-1490h-372zM1489 3351v372h372v-372h-372zM1861 3723v373h373v-373h-373z" />
    <glyph glyph-name="uni207E" unicode="&#x207e;" 
d="M1117 1117v372h372v-372h-372zM1489 1489v372h372v-372h-372zM1861 1861v1490h373v-1490h-373zM1489 3351v372h372v-372h-372zM1117 3723v373h372v-373h-372z" />
    <glyph glyph-name="uni207F" unicode="&#x207f;" 
d="M744 1117v744h373v-744h-373zM1117 1861v745h372v-745h-372zM1489 2606v745h372v-745h-372zM1861 3351v745h373v-745h-373z" />
    <glyph glyph-name="uni2080" unicode="&#x2080;" 
d="M1861 0v372h373v-372h-373zM1117 744v373h372v-373h-372zM1489 1117v372h372v-372h-372zM744 -372v372h-372v1861h372v-1117h373v-744h744v-372h-1117zM744 1861v373h373v-373h-373zM2234 372v1117h-373v745h-744v372h1117v-372h372v-1862h-372z" />
    <glyph glyph-name="uni2081" unicode="&#x2081;" 
d="M744 -372v372h745v2234h-745v372h745v372h372v-2978h745v-372h-1862z" />
    <glyph glyph-name="uni2082" unicode="&#x2082;" 
d="M372 -372v744h372v372h373v-744h1117v372h372v-744h-2234zM372 1489v745h372v-373h373v-372h-745zM1117 744v373h372v372h372v745h-1117v372h1490v-372h372v-745h-372v-372h-373v-373h-744z" />
    <glyph glyph-name="uni2083" unicode="&#x2083;" 
d="M372 -372v744h745v-372h-373v-372h-372zM744 -744v372h745v372h372v1117h373v-373h372v-744h-372v-372h-373v-372h-1117zM1117 1117v372h372v372h372v-744h-744zM372 1861v745h2234v-372h-372v-373h-373v373h-1117v-373h-372z" />
    <glyph glyph-name="uni2084" unicode="&#x2084;" 
d="M1117 -372v372h744v372h-1489v372h372v745h373v-745h744v1490h-372v-745h-372v745h-373v372h1490v-1862h372v-372h-372v-372h372v-372h-1489z" />
    <glyph glyph-name="uni2085" unicode="&#x2085;" 
d="M372 0v744h745v-372h-373v-372h-372zM744 -372v372h745v372h372v1117h373v-372h372v-745h-372v-372h-373v-372h-1117zM372 1117v1489h2234v-372h-1862v-373h1117v-372h-1117v-372h-372z" />
    <glyph glyph-name="uni2086" unicode="&#x2086;" 
d="M1861 0v372h373v-372h-373zM744 -372v372h-372v1861h372v373h373v-373h1117v-372h372v-1117h-372v745h-373v372h-744v-372h-373v-745h373v-372h744v-372h-1117zM1117 2234v372h372v-372h-372zM1489 2606v372h745v-372h-745z" />
    <glyph glyph-name="uni2087" unicode="&#x2087;" 
d="M1489 -744v372h-372v1116h372v745h372v-2233h-372zM372 1489v1117h372v-372h1490v372h372v-745h-372v-372h-373v372h-1117v-372h-372z" />
    <glyph glyph-name="uni2088" unicode="&#x2088;" 
d="M744 -372v372h-372v1117h372v-745h373v-372h744v372h373v745h372v-1117h-372v-372h-1490zM744 1117v372h373v-372h-373zM1861 1117v372h373v-372h-373zM744 1861v745h373v-745h-373zM1117 1489v372h372v373h372v372h373v-745h-373v-372h-744zM1117 2606v372h744v-372
h-744z" />
    <glyph glyph-name="uni2089" unicode="&#x2089;" 
d="M744 -744v372h745v-372h-745zM1489 -372v372h372v-372h-372zM744 1861v373h373v-373h-373zM1861 0v372h-1117v372h-372v1117h372v-744h373v-373h744v373h373v744h-373v373h-744v372h1117v-372h372v-1862h-372v-372h-373z" />
    <glyph glyph-name="uni208A" unicode="&#x208a;" 
d="M1117 0v744h-745v373h745v744h372v-744h745v-373h-745v-744h-372z" />
    <glyph glyph-name="uni208B" unicode="&#x208b;" 
d="M372 744v373h1862v-373h-1862z" />
    <glyph glyph-name="uni208C" unicode="&#x208c;" 
d="M744 744v373h1862v-373h-1862zM744 1489v372h1862v-372h-1862z" />
    <glyph glyph-name="uni208D" unicode="&#x208d;" 
d="M1861 -372v372h373v-372h-373zM1489 0v372h372v-372h-372zM1117 372v1489h372v-1489h-372zM1489 1861v373h372v-373h-372zM1861 2234v372h373v-372h-373z" />
    <glyph glyph-name="uni208E" unicode="&#x208e;" 
d="M1117 -372v372h372v-372h-372zM1489 0v372h372v-372h-372zM1861 372v1489h373v-1489h-373zM1489 1861v373h372v-373h-372zM1117 2234v372h372v-372h-372z" />
    <glyph glyph-name="uni2094" unicode="&#x2094;" 
d="M372 372v372h372v-372h-372zM1861 372v372h373v-372h-373zM372 1117v372h372v-372h-372zM1861 1117v372h373v-372h-373zM1117 0v744h-373v373h373v744h372v-744h372v-373h-372v-744h-372z" />
    <glyph glyph-name="uni2099" unicode="&#x2099;" 
d="M744 -372v744h373v-744h-373zM1117 372v745h372v-745h-372zM1489 1117v744h372v-744h-372zM1861 1861v745h373v-745h-373z" />
    <glyph glyph-name="Euro" unicode="&#x20ac;" 
d="M1117 0v372h-373v372h-372v373h-372v372h372v372h-372v373h372v372h372v372h373v373h1117v-373h372v-372h-745v372h-372v-372h-372v-372h1117v-373h-1117v-372h1117v-372h-1117v-373h372v-372h372v372h745v-372h-372v-372h-1117z" />
    <glyph glyph-name="trademark" unicode="&#x2122;" 
d="M1861 2234v372h373v-372h-373zM372 1861v1117h-372v373h1489v-373h372v-372h-372v-745h-372v1117h-373v-1117h-372zM2606 1861v745h-372v372h372v373h372v-1490h-372z" />
    <glyph glyph-name="block" unicode="&#x2588;" 
d="M0 -744v4467h2978v-4467h-2978z" />
    <glyph glyph-name="filledbox" unicode="&#x25a0;" 
d="M0 0v2978h2978v-2978h-2978z" />
    <glyph glyph-name="H18543" unicode="&#x25aa;" 
d="M0 0v2234h2234v-2234h-2234z" />
    <glyph glyph-name="triagup" unicode="&#x25b2;" 
d="M0 372v745h372v744h372v745h373v745h372v-745h372v-745h373v-744h372v-745h-2606z" />
    <glyph glyph-name="uni25B6" unicode="&#x25b6;" 
d="M0 744v2607h744v-373h745v-372h745v-372h744v-373h-744v-372h-745v-372h-745v-373h-744z" />
    <glyph glyph-name="triagrt" unicode="&#x25ba;" 
d="M0 744v2607h372v-373h745v-372h744v-372h745v-373h-745v-372h-744v-372h-745v-373h-372z" />
    <glyph glyph-name="triagdn" unicode="&#x25bc;" 
d="M1117 372v745h-373v744h-372v745h-372v745h2606v-745h-372v-745h-373v-744h-372v-745h-372z" />
    <glyph glyph-name="uni25C0" unicode="&#x25c0;" 
d="M2234 744v373h-745v372h-745v372h-744v373h744v372h745v372h745v373h744v-2607h-744z" />
    <glyph glyph-name="triaglf" unicode="&#x25c4;" 
d="M2234 744v373h-745v372h-745v372h-744v373h744v372h745v372h745v373h372v-2607h-372z" />
    <glyph glyph-name="uni2605" unicode="&#x2605;" 
d="M372 744v373h372v-373h-372zM1861 744v373h373v-373h-373zM744 1117v744h-372v373h745v744h372v-744h745v-373h-373v-744h-372v372h-372v-372h-373z" />
    <glyph glyph-name="uni2606" unicode="&#x2606;" 
d="M372 744v373h372v-373h-372zM1861 744v373h373v-373h-373zM744 1117v744h-372v373h745v-373h372v373h745v-373h-373v-744h-372v372h-372v-372h-373zM1117 2234v744h372v-744h-372z" />
    <glyph glyph-name="uni2625" unicode="&#x2625;" 
d="M1117 0v1117h-1117v372h1117v372h372v-372h1117v-372h-1117v-1117h-372zM744 1861v373h373v-373h-373zM1489 1861v373h372v-373h-372zM372 2234v744h372v-744h-372zM1861 2234v744h373v-744h-373zM744 2978v373h1117v-373h-1117z" />
    <glyph glyph-name="female" unicode="&#x2640;" 
d="M1117 372v372h-745v373h745v372h-373v372h1117v-372h-372v-372h745v-373h-745v-372h-372zM372 1861v1117h372v-1117h-372zM1861 1861v1117h373v-1117h-373zM744 2978v373h1117v-373h-1117z" />
    <glyph glyph-name="male" unicode="&#x2642;" 
d="M372 372v372h1117v-372h-1117zM0 744v1117h372v-1117h-372zM1489 744v1117h372v-1117h-372zM372 1861v373h1117v-373h-1117zM1489 2234v372h372v-372h-372zM2234 1861v745h-373v372h-744v373h1489v-1490h-372z" />
    <glyph glyph-name="uni300C" unicode="&#x300c;" 
d="M1489 744v2607h1489v-373h-744v-1861h-373v-373h-372z" />
    <glyph glyph-name="uni300D" unicode="&#x300d;" 
d="M0 0v372h744v1862h373v372h372v-2606h-1489z" />
    <glyph glyph-name="uni300E" unicode="&#x300e;" 
d="M1117 1117v1489h1117v372h-1490v-1861h373zM372 744v2607h2234v-1117h-745v-1490h-1489z" />
    <glyph glyph-name="uni300F" unicode="&#x300f;" 
d="M1489 372v1862h-372v-1490h-745v-372h1117zM0 0v1117h744v1489h1490v-2606h-2234z" />
    <glyph glyph-name="uniFFFC" unicode="&#xfffc;" 
d="M0 -744v4467h2978v-4467h-2978z" />
    <glyph glyph-name="uniFFFD" unicode="&#xfffd;" 
d="M0 -744v4467h2978v-4467h-2978z" />
  </font>
</defs>
</svg>
